Gharbi-Bold.ufo
<glyph name="zero" format="2">
  <advance width="1098"/>
  <unicode hex="0030"/>
  <note>
uni0030
</note>
  <outline>
    <contour>
      <point x="1040" y="806" type="line" smooth="yes"/>
      <point x="1040" y="1187"/>
      <point x="861" y="1404"/>
      <point x="549" y="1404" type="curve" smooth="yes"/>
      <point x="237" y="1404"/>
      <point x="57" y="1190"/>
      <point x="57" y="809" type="curve" smooth="yes"/>
      <point x="57" y="550" type="line" smooth="yes"/>
      <point x="57" y="171"/>
      <point x="236" y="-45"/>
      <point x="551" y="-45" type="curve" smooth="yes"/>
      <point x="864" y="-45"/>
      <point x="1040" y="171"/>
      <point x="1040" y="550" type="curve" smooth="yes"/>
    </contour>
    <contour>
      <point x="715" y="503" type="line" smooth="yes"/>
      <point x="712" y="298"/>
      <point x="663" y="207"/>
      <point x="551" y="207" type="curve" smooth="yes"/>
      <point x="436" y="207"/>
      <point x="384" y="301"/>
      <point x="384" y="512" type="curve" smooth="yes"/>
      <point x="384" y="872" type="line" smooth="yes"/>
      <point x="389" y="1061"/>
      <point x="437" y="1152"/>
      <point x="549" y="1152" type="curve" smooth="yes"/>
      <point x="664" y="1152"/>
      <point x="715" y="1053"/>
      <point x="715" y="849" type="curve" smooth="yes"/>
    </contour>
  </outline>
</glyph>
<glyph name="one" format="2">
  <advance width="801"/>
  <unicode hex="0031"/>
  <note>
uni0031
</note>
  <outline>
    <contour>
      <point x="721" y="1410" type="line"/>
      <point x="693" y="1410" type="line"/>
      <point x="72" y="1196" type="line"/>
      <point x="72" y="948" type="line"/>
      <point x="395" y="1043" type="line"/>
      <point x="395" y="0" type="line"/>
      <point x="721" y="0" type="line"/>
    </contour>
  </outline>
</glyph>
<glyph name="three" format="2">
  <advance width="1137"/>
  <unicode hex="0033"/>
  <note>
uni0033
</note>
  <outline>
    <contour>
      <point x="396" y="572" type="line"/>
      <point x="554" y="572" type="line" smooth="yes"/>
      <point x="679" y="572"/>
      <point x="754" y="520"/>
      <point x="754" y="376" type="curve" smooth="yes"/>
      <point x="754" y="276"/>
      <point x="678" y="207"/>
      <point x="565" y="207" type="curve" smooth="yes"/>
      <point x="464" y="207"/>
      <point x="384" y="279"/>
      <point x="384" y="367" type="curve"/>
      <point x="55" y="367" type="line"/>
      <point x="55" y="96"/>
      <point x="295" y="-45"/>
      <point x="554" y="-45" type="curve" smooth="yes"/>
      <point x="869" y="-45"/>
      <point x="1081" y="121"/>
      <point x="1081" y="370" type="curve" smooth="yes"/>
      <point x="1081" y="535"/>
      <point x="991" y="644"/>
      <point x="840" y="699" type="curve"/>
      <point x="983" y="767"/>
      <point x="1059" y="879"/>
      <point x="1059" y="1002" type="curve" smooth="yes"/>
      <point x="1059" y="1251"/>
      <point x="869" y="1406"/>
      <point x="554" y="1406" type="curve" smooth="yes"/>
      <point x="309" y="1406"/>
      <point x="78" y="1264"/>
      <point x="78" y="1021" type="curve"/>
      <point x="405" y="1021" type="line"/>
      <point x="405" y="1096"/>
      <point x="478" y="1154"/>
      <point x="565" y="1154" type="curve" smooth="yes"/>
      <point x="670" y="1154"/>
      <point x="732" y="1089"/>
      <point x="732" y="996" type="curve" smooth="yes"/>
      <point x="732" y="875"/>
      <point x="671" y="815"/>
      <point x="549" y="815" type="curve" smooth="yes"/>
      <point x="396" y="815" type="line"/>
    </contour>
  </outline>
</glyph>
<glyph name="five" format="2">
  <advance width="1100"/>
  <unicode hex="0035"/>
  <note>
uni0035
</note>
  <outline>
    <contour>
      <point x="343" y="604" type="line"/>
      <point x="381" y="651"/>
      <point x="438" y="675"/>
      <point x="515" y="675" type="curve" smooth="yes"/>
      <point x="648" y="675"/>
      <point x="715" y="600"/>
      <point x="715" y="451" type="curve" smooth="yes"/>
      <point x="715" y="288"/>
      <point x="660" y="207"/>
      <point x="551" y="207" type="curve" smooth="yes"/>
      <point x="455" y="207"/>
      <point x="389" y="271"/>
      <point x="384" y="376" type="curve"/>
      <point x="57" y="376" type="line"/>
      <point x="57" y="112"/>
      <point x="302" y="-45"/>
      <point x="553" y="-45" type="curve" smooth="yes"/>
      <point x="852" y="-45"/>
      <point x="1042" y="145"/>
      <point x="1042" y="428" type="curve" smooth="yes"/>
      <point x="1042" y="728"/>
      <point x="887" y="903"/>
      <point x="607" y="903" type="curve" smooth="yes"/>
      <point x="535" y="903"/>
      <point x="450" y="879"/>
      <point x="405" y="851" type="curve"/>
      <point x="436" y="1131" type="line"/>
      <point x="994" y="1131" type="line"/>
      <point x="994" y="1386" type="line"/>
      <point x="171" y="1386" type="line"/>
      <point x="85" y="664" type="line"/>
    </contour>
  </outline>
</glyph>
<glyph name="six" format="2">
  <advance width="1126"/>
  <unicode hex="0036"/>
  <note>
uni0036
</note>
  <outline>
    <contour>
      <point x="851" y="1406" type="line"/>
      <point x="283" y="1406"/>
      <point x="56" y="1049"/>
      <point x="56" y="642" type="curve" smooth="yes"/>
      <point x="56" y="512" type="line" smooth="yes"/>
      <point x="61" y="168"/>
      <point x="278" y="-45"/>
      <point x="576" y="-45" type="curve" smooth="yes"/>
      <point x="860" y="-45"/>
      <point x="1070" y="165"/>
      <point x="1070" y="441" type="curve" smooth="yes"/>
      <point x="1070" y="730"/>
      <point x="912" y="926"/>
      <point x="669" y="926" type="curve" smooth="yes"/>
      <point x="556" y="926"/>
      <point x="463" y="890"/>
      <point x="390" y="817" type="curve"/>
      <point x="420" y="993"/>
      <point x="548" y="1148"/>
      <point x="851" y="1148" type="curve"/>
    </contour>
    <contour>
      <point x="556" y="675" type="curve" smooth="yes"/>
      <point x="668" y="675"/>
      <point x="741" y="581"/>
      <point x="741" y="441" type="curve" smooth="yes"/>
      <point x="741" y="306"/>
      <point x="667" y="207"/>
      <point x="567" y="207" type="curve" smooth="yes"/>
      <point x="444" y="207"/>
      <point x="383" y="296"/>
      <point x="383" y="473" type="curve" smooth="yes"/>
      <point x="383" y="572" type="line"/>
      <point x="411" y="629"/>
      <point x="471" y="675"/>
    </contour>
  </outline>
</glyph>
<glyph name="B" format="2">
  <advance width="1271"/>
  <unicode hex="0042"/>
  <note>
uni0042
</note>
  <outline>
    <contour>
      <point x="673" y="0" type="line"/>
      <point x="1019" y="3"/>
      <point x="1191" y="141"/>
      <point x="1191" y="415" type="curve" smooth="yes"/>
      <point x="1191" y="568"/>
      <point x="1111" y="678"/>
      <point x="964" y="714" type="curve"/>
      <point x="1096" y="766"/>
      <point x="1162" y="869"/>
      <point x="1162" y="1016" type="curve" smooth="yes"/>
      <point x="1162" y="1265"/>
      <point x="968" y="1404"/>
      <point x="611" y="1404" type="curve" smooth="yes"/>
      <point x="106" y="1404" type="line"/>
      <point x="106" y="0" type="line"/>
    </contour>
    <contour>
      <point x="680" y="595" type="line"/>
      <point x="798" y="595"/>
      <point x="856" y="536"/>
      <point x="856" y="419" type="curve" smooth="yes"/>
      <point x="856" y="320"/>
      <point x="788" y="260"/>
      <point x="664" y="260" type="curve" smooth="yes"/>
      <point x="443" y="260" type="line"/>
      <point x="443" y="595" type="line"/>
    </contour>
    <contour>
      <point x="443" y="1140" type="line"/>
      <point x="611" y="1140" type="line" smooth="yes"/>
      <point x="760" y="1140"/>
      <point x="824" y="1092"/>
      <point x="824" y="976" type="curve" smooth="yes"/>
      <point x="824" y="870"/>
      <point x="767" y="817"/>
      <point x="619" y="817" type="curve" smooth="yes"/>
      <point x="443" y="817" type="line"/>
    </contour>
  </outline>
</glyph>
<glyph name="C" format="2">
  <advance width="1293"/>
  <unicode hex="0043"/>
  <note>
uni0043
</note>
  <outline>
    <contour>
      <point x="905" y="449" type="line"/>
      <point x="898" y="289"/>
      <point x="818" y="221"/>
      <point x="662" y="221" type="curve" smooth="yes"/>
      <point x="478" y="221"/>
      <point x="411" y="338"/>
      <point x="411" y="638" type="curve" smooth="yes"/>
      <point x="411" y="737" type="line" smooth="yes"/>
      <point x="411" y="1013"/>
      <point x="489" y="1131"/>
      <point x="656" y="1131" type="curve" smooth="yes"/>
      <point x="822" y="1131"/>
      <point x="900" y="1064"/>
      <point x="907" y="892" type="curve"/>
      <point x="1242" y="892" type="line"/>
      <point x="1215" y="1205"/>
      <point x="996" y="1397"/>
      <point x="656" y="1397" type="curve" smooth="yes"/>
      <point x="294" y="1397"/>
      <point x="67" y="1131"/>
      <point x="67" y="712" type="curve" smooth="yes"/>
      <point x="67" y="642" type="line" smooth="yes"/>
      <point x="67" y="207"/>
      <point x="292" y="-45"/>
      <point x="662" y="-45" type="curve" smooth="yes"/>
      <point x="992" y="-45"/>
      <point x="1226" y="143"/>
      <point x="1240" y="449" type="curve"/>
    </contour>
  </outline>
</glyph>
<glyph name="E" format="2">
  <advance width="1103"/>
  <unicode hex="0045"/>
  <note>
uni0045
</note>
  <outline>
    <contour>
      <point x="975" y="845" type="line"/>
      <point x="444" y="845" type="line"/>
      <point x="444" y="1140" type="line"/>
      <point x="1073" y="1140" type="line"/>
      <point x="1073" y="1404" type="line"/>
      <point x="106" y="1404" type="line"/>
      <point x="106" y="0" type="line"/>
      <point x="1070" y="0" type="line"/>
      <point x="1070" y="260" type="line"/>
      <point x="444" y="260" type="line"/>
      <point x="444" y="595" type="line"/>
      <point x="975" y="595" type="line"/>
    </contour>
  </outline>
</glyph>
<glyph name="G" format="2">
  <advance width="1343"/>
  <unicode hex="0047"/>
  <note>
uni0047
</note>
  <outline>
    <contour>
      <point x="1252" y="723" type="line"/>
      <point x="680" y="723" type="line"/>
      <point x="680" y="491" type="line"/>
      <point x="915" y="491" type="line"/>
      <point x="915" y="273" type="line"/>
      <point x="871" y="233"/>
      <point x="806" y="215"/>
      <point x="719" y="215" type="curve" smooth="yes"/>
      <point x="514" y="215"/>
      <point x="423" y="355"/>
      <point x="423" y="638" type="curve" smooth="yes"/>
      <point x="423" y="721" type="line" smooth="yes"/>
      <point x="423" y="986"/>
      <point x="518" y="1137"/>
      <point x="689" y="1137" type="curve" smooth="yes"/>
      <point x="828" y="1137"/>
      <point x="901" y="1076"/>
      <point x="926" y="917" type="curve"/>
      <point x="1252" y="917" type="line"/>
      <point x="1223" y="1235"/>
      <point x="1024" y="1397"/>
      <point x="676" y="1397" type="curve" smooth="yes"/>
      <point x="311" y="1397"/>
      <point x="79" y="1131"/>
      <point x="79" y="712" type="curve" smooth="yes"/>
      <point x="79" y="593" type="line" smooth="yes"/>
      <point x="94" y="193"/>
      <point x="329" y="-45"/>
      <point x="696" y="-45" type="curve" smooth="yes"/>
      <point x="937" y="-45"/>
      <point x="1150" y="32"/>
      <point x="1252" y="149" type="curve"/>
    </contour>
  </outline>
</glyph>
<glyph name="M" format="2">
  <advance width="1729"/>
  <unicode hex="004D"/>
  <note>
uni004D
</note>
  <outline>
    <contour>
      <point x="106" y="1404" type="line"/>
      <point x="106" y="0" type="line"/>
      <point x="444" y="0" type="line"/>
      <point x="410" y="998" type="line"/>
      <point x="751" y="0" type="line"/>
      <point x="975" y="0" type="line"/>
      <point x="1314" y="998" type="line"/>
      <point x="1280" y="0" type="line"/>
      <point x="1620" y="0" type="line"/>
      <point x="1620" y="1404" type="line"/>
      <point x="1174" y="1404" type="line"/>
      <point x="863" y="426" type="line"/>
      <point x="550" y="1404" type="line"/>
    </contour>
  </outline>
</glyph>
<glyph name="O" format="2">
  <advance width="1361"/>
  <unicode hex="004F"/>
  <note>
uni004F
</note>
  <outline>
    <contour>
      <point x="1293" y="712" type="line"/>
      <point x="1293" y="1121"/>
      <point x="1042" y="1397"/>
      <point x="680" y="1397" type="curve" smooth="yes"/>
      <point x="317" y="1397"/>
      <point x="67" y="1131"/>
      <point x="67" y="703" type="curve" smooth="yes"/>
      <point x="67" y="624" type="line" smooth="yes"/>
      <point x="76" y="218"/>
      <point x="316" y="-45"/>
      <point x="682" y="-45" type="curve" smooth="yes"/>
      <point x="1051" y="-45"/>
      <point x="1293" y="226"/>
      <point x="1293" y="647" type="curve" smooth="yes"/>
    </contour>
    <contour>
      <point x="951" y="640" type="line"/>
      <point x="951" y="366"/>
      <point x="854" y="219"/>
      <point x="682" y="219" type="curve" smooth="yes"/>
      <point x="502" y="219"/>
      <point x="412" y="371"/>
      <point x="412" y="647" type="curve" smooth="yes"/>
      <point x="412" y="750" type="line" smooth="yes"/>
      <point x="423" y="1004"/>
      <point x="512" y="1131"/>
      <point x="680" y="1131" type="curve" smooth="yes"/>
      <point x="854" y="1131"/>
      <point x="951" y="985"/>
      <point x="951" y="705" type="curve" smooth="yes"/>
    </contour>
  </outline>
</glyph>
<glyph name="Q" format="2">
  <advance width="1362"/>
  <unicode hex="0051"/>
  <note>
uni0051
</note>
  <outline>
    <contour>
      <point x="1295" y="738" type="line"/>
      <point x="1295" y="1164"/>
      <point x="1032" y="1426"/>
      <point x="682" y="1426" type="curve" smooth="yes"/>
      <point x="330" y="1426"/>
      <point x="69" y="1167"/>
      <point x="69" y="732" type="curve" smooth="yes"/>
      <point x="69" y="658" type="line" smooth="yes"/>
      <point x="74" y="251"/>
      <point x="320" y="-16"/>
      <point x="684" y="-16" type="curve" smooth="yes"/>
      <point x="712" y="-16"/>
      <point x="739" y="-14"/>
      <point x="768" y="-10" type="curve"/>
      <point x="1069" y="-253" type="line"/>
      <point x="1279" y="-75" type="line"/>
      <point x="1052" y="103" type="line"/>
      <point x="1205" y="220"/>
      <point x="1295" y="417"/>
      <point x="1295" y="675" type="curve" smooth="yes"/>
    </contour>
    <contour>
      <point x="953" y="669" type="line"/>
      <point x="949" y="398"/>
      <point x="856" y="248"/>
      <point x="684" y="248" type="curve" smooth="yes"/>
      <point x="504" y="248"/>
      <point x="414" y="399"/>
      <point x="414" y="675" type="curve" smooth="yes"/>
      <point x="414" y="738" type="line" smooth="yes"/>
      <point x="414" y="1015"/>
      <point x="502" y="1159"/>
      <point x="682" y="1159" type="curve" smooth="yes"/>
      <point x="854" y="1159"/>
      <point x="953" y="1013"/>
      <point x="953" y="734" type="curve" smooth="yes"/>
    </contour>
  </outline>
</glyph>
<glyph name="U" format="2">
  <advance width="1309"/>
  <unicode hex="0055"/>
  <note>
uni0055
</note>
  <outline>
    <contour>
      <point x="866" y="1376" type="line"/>
      <point x="866" y="462" type="line" smooth="yes"/>
      <point x="866" y="285"/>
      <point x="794" y="215"/>
      <point x="653" y="215" type="curve" smooth="yes"/>
      <point x="514" y="215"/>
      <point x="444" y="292"/>
      <point x="441" y="447" type="curve" smooth="yes"/>
      <point x="441" y="1376" type="line"/>
      <point x="101" y="1376" type="line"/>
      <point x="101" y="451" type="line" smooth="yes"/>
      <point x="104" y="144"/>
      <point x="313" y="-45"/>
      <point x="653" y="-45" type="curve" smooth="yes"/>
      <point x="996" y="-45"/>
      <point x="1204" y="141"/>
      <point x="1204" y="460" type="curve" smooth="yes"/>
      <point x="1204" y="1376" type="line"/>
    </contour>
  </outline>
</glyph>
<glyph name="W" format="2">
  <advance width="1713"/>
  <unicode hex="0057"/>
  <note>
uni0057
</note>
  <outline>
    <contour>
      <point x="515" y="523" type="line"/>
      <point x="356" y="1404" type="line"/>
      <point x="20" y="1404" type="line"/>
      <point x="319" y="0" type="line"/>
      <point x="669" y="0" type="line"/>
      <point x="852" y="800" type="line"/>
      <point x="1041" y="0" type="line"/>
      <point x="1392" y="0" type="line"/>
      <point x="1687" y="1404" type="line"/>
      <point x="1351" y="1404" type="line"/>
      <point x="1192" y="523" type="line"/>
      <point x="996" y="1404" type="line"/>
      <point x="710" y="1404" type="line"/>
    </contour>
  </outline>
</glyph>
<glyph name="Y" format="2">
  <advance width="1236"/>
  <unicode hex="0059"/>
  <note>
uni0059
</note>
  <outline>
    <contour>
      <point x="360" y="1404" type="line"/>
      <point x="-3" y="1404" type="line"/>
      <point x="448" y="505" type="line"/>
      <point x="448" y="0" type="line"/>
      <point x="790" y="0" type="line"/>
      <point x="790" y="505" type="line"/>
      <point x="1240" y="1404" type="line"/>
      <point x="878" y="1404" type="line"/>
      <point x="618" y="793" type="line"/>
    </contour>
  </outline>
</glyph>
<glyph name="underscore" format="2">
  <advance width="1227"/>
  <unicode hex="005F"/>
  <outline>
    <contour>
      <point x="-2" y="-117" type="line"/>
      <point x="-2" y="-244" type="line"/>
      <point x="1229" y="-244" type="line"/>
      <point x="1229" y="-117" type="line"/>
    </contour>
  </outline>
</glyph>
<glyph name="b" format="2">
  <advance width="1110"/>
  <unicode hex="0062"/>
  <note>
uni0062
</note>
  <outline>
    <contour>
      <point x="1058" y="505" type="line"/>
      <point x="1058" y="838"/>
      <point x="914" y="1034"/>
      <point x="653" y="1034" type="curve" smooth="yes"/>
      <point x="556" y="1034"/>
      <point x="478" y="1000"/>
      <point x="419" y="931" type="curve"/>
      <point x="419" y="1453" type="line"/>
      <point x="94" y="1453" type="line"/>
      <point x="94" y="-25" type="line"/>
      <point x="385" y="-25" type="line"/>
      <point x="398" y="81" type="line"/>
      <point x="464" y="-3"/>
      <point x="550" y="-45"/>
      <point x="655" y="-45" type="curve" smooth="yes"/>
      <point x="914" y="-45"/>
      <point x="1058" y="144"/>
      <point x="1058" y="486" type="curve" smooth="yes"/>
    </contour>
    <contour>
      <point x="734" y="505" type="curve" smooth="yes"/>
      <point x="734" y="355"/>
      <point x="730" y="205"/>
      <point x="572" y="205" type="curve" smooth="yes"/>
      <point x="497" y="205"/>
      <point x="445" y="232"/>
      <point x="419" y="286" type="curve"/>
      <point x="419" y="701" type="line"/>
      <point x="447" y="756"/>
      <point x="498" y="784"/>
      <point x="572" y="784" type="curve" smooth="yes"/>
      <point x="679" y="784"/>
      <point x="734" y="706"/>
    </contour>
  </outline>
</glyph>
<glyph name="c" format="2">
  <advance width="1024"/>
  <unicode hex="0063"/>
  <note>
uni0063
</note>
  <outline>
    <contour>
      <point x="529" y="205" type="curve" smooth="yes"/>
      <point x="425" y="205"/>
      <point x="364" y="274"/>
      <point x="374" y="484" type="curve" smooth="yes"/>
      <point x="381" y="624" type="line" smooth="yes"/>
      <point x="386" y="731"/>
      <point x="444" y="784"/>
      <point x="527" y="784" type="curve" smooth="yes"/>
      <point x="617" y="784"/>
      <point x="674" y="725"/>
      <point x="674" y="617" type="curve"/>
      <point x="978" y="617" type="line"/>
      <point x="978" y="876"/>
      <point x="807" y="1034"/>
      <point x="536" y="1034" type="curve" smooth="yes"/>
      <point x="232" y="1034"/>
      <point x="50" y="831"/>
      <point x="50" y="505" type="curve" smooth="yes"/>
      <point x="50" y="491" type="line" smooth="yes"/>
      <point x="50" y="157"/>
      <point x="236" y="-45"/>
      <point x="538" y="-45" type="curve" smooth="yes"/>
      <point x="797" y="-45"/>
      <point x="978" y="117"/>
      <point x="978" y="344" type="curve"/>
      <point x="674" y="344" type="line"/>
      <point x="674" y="257"/>
      <point x="623" y="205"/>
    </contour>
  </outline>
</glyph>
<glyph name="f" format="2">
  <advance width="714"/>
  <unicode hex="0066"/>
  <note>
uni0066
</note>
  <outline>
    <contour>
      <point x="489" y="0" type="line"/>
      <point x="489" y="815" type="line"/>
      <point x="692" y="815" type="line"/>
      <point x="692" y="1041" type="line"/>
      <point x="489" y="1041" type="line"/>
      <point x="489" y="1122" type="line" smooth="yes"/>
      <point x="489" y="1206"/>
      <point x="538" y="1249"/>
      <point x="636" y="1249" type="curve" smooth="yes"/>
      <point x="669" y="1249"/>
      <point x="695" y="1246"/>
      <point x="715" y="1241" type="curve"/>
      <point x="715" y="1477" type="line"/>
      <point x="659" y="1493"/>
      <point x="608" y="1500"/>
      <point x="562" y="1500" type="curve" smooth="yes"/>
      <point x="309" y="1500"/>
      <point x="163" y="1362"/>
      <point x="163" y="1124" type="curve" smooth="yes"/>
      <point x="163" y="1041" type="line"/>
      <point x="12" y="1041" type="line"/>
      <point x="12" y="815" type="line"/>
      <point x="163" y="815" type="line"/>
      <point x="163" y="0" type="line"/>
    </contour>
  </outline>
</glyph>
<glyph name="h" format="2">
  <advance width="1114"/>
  <unicode hex="0068"/>
  <note>
uni0068
</note>
  <outline>
    <contour>
      <point x="409" y="1477" type="line"/>
      <point x="84" y="1477" type="line"/>
      <point x="84" y="0" type="line"/>
      <point x="409" y="0" type="line"/>
      <point x="409" y="748" type="line"/>
      <point x="435" y="790"/>
      <point x="483" y="811"/>
      <point x="551" y="811" type="curve" smooth="yes"/>
      <point x="659" y="811"/>
      <point x="699" y="759"/>
      <point x="699" y="651" type="curve" smooth="yes"/>
      <point x="699" y="0" type="line"/>
      <point x="1024" y="0" type="line"/>
      <point x="1024" y="658" type="line" smooth="yes"/>
      <point x="1020" y="925"/>
      <point x="903" y="1062"/>
      <point x="674" y="1062" type="curve" smooth="yes"/>
      <point x="566" y="1062"/>
      <point x="478" y="1018"/>
      <point x="409" y="931" type="curve"/>
    </contour>
  </outline>
</glyph>
<glyph name="i" format="2">
  <advance width="543"/>
  <unicode hex="0069"/>
  <note>
uni0069
</note>
  <outline>
    <contour>
      <point x="433" y="1041" type="line"/>
      <point x="108" y="1041" type="line"/>
      <point x="108" y="0" type="line"/>
      <point x="433" y="0" type="line"/>
    </contour>
    <contour>
      <point x="89" y="1311" type="curve" smooth="yes"/>
      <point x="89" y="1218"/>
      <point x="161" y="1154"/>
      <point x="268" y="1154" type="curve" smooth="yes"/>
      <point x="375" y="1154"/>
      <point x="449" y="1219"/>
      <point x="449" y="1310" type="curve" smooth="yes"/>
      <point x="449" y="1401"/>
      <point x="375" y="1469"/>
      <point x="268" y="1469" type="curve" smooth="yes"/>
      <point x="161" y="1469"/>
      <point x="89" y="1401"/>
    </contour>
  </outline>
</glyph>
<glyph name="k" format="2">
  <advance width="1080"/>
  <unicode hex="006B"/>
  <note>
uni006B
</note>
  <outline>
    <contour>
      <point x="94" y="1481" type="line"/>
      <point x="94" y="0" type="line"/>
      <point x="418" y="0" type="line"/>
      <point x="418" y="297" type="line"/>
      <point x="511" y="389" type="line"/>
      <point x="736" y="0" type="line"/>
      <point x="1110" y="0" type="line"/>
      <point x="718" y="613" type="line"/>
      <point x="1085" y="1041" type="line"/>
      <point x="696" y="1041" type="line"/>
      <point x="418" y="694" type="line"/>
      <point x="418" y="1481" type="line"/>
    </contour>
  </outline>
</glyph>
<glyph name="n" format="2">
  <advance width="1114"/>
  <unicode hex="006E"/>
  <note>
uni006E
</note>
  <outline>
    <contour>
      <point x="85" y="1041" type="line"/>
      <point x="85" y="0" type="line"/>
      <point x="410" y="0" type="line"/>
      <point x="410" y="737" type="line"/>
      <point x="442" y="787"/>
      <point x="489" y="811"/>
      <point x="552" y="811" type="curve" smooth="yes"/>
      <point x="663" y="811"/>
      <point x="698" y="763"/>
      <point x="698" y="658" type="curve" smooth="yes"/>
      <point x="698" y="0" type="line"/>
      <point x="1025" y="0" type="line"/>
      <point x="1025" y="671" type="line" smooth="yes"/>
      <point x="1018" y="933"/>
      <point x="915" y="1062"/>
      <point x="698" y="1062" type="curve" smooth="yes"/>
      <point x="570" y="1062"/>
      <point x="471" y="1014"/>
      <point x="401" y="920" type="curve"/>
      <point x="389" y="1041" type="line"/>
    </contour>
  </outline>
</glyph>
<glyph name="o" format="2">
  <advance width="1109"/>
  <unicode hex="006F"/>
  <note>
uni006F
</note>
  <outline>
    <contour>
      <point x="50" y="449" type="line"/>
      <point x="66" y="147"/>
      <point x="257" y="-45"/>
      <point x="555" y="-45" type="curve" smooth="yes"/>
      <point x="861" y="-45"/>
      <point x="1057" y="160"/>
      <point x="1057" y="484" type="curve" smooth="yes"/>
      <point x="1057" y="496" type="line" smooth="yes"/>
      <point x="1057" y="829"/>
      <point x="865" y="1034"/>
      <point x="553" y="1034" type="curve" smooth="yes"/>
      <point x="232" y="1034"/>
      <point x="50" y="816"/>
      <point x="50" y="505" type="curve" smooth="yes"/>
    </contour>
    <contour>
      <point x="377" y="543" type="line"/>
      <point x="386" y="704"/>
      <point x="444" y="784"/>
      <point x="553" y="784" type="curve" smooth="yes"/>
      <point x="673" y="784"/>
      <point x="732" y="691"/>
      <point x="732" y="505" type="curve" smooth="yes"/>
      <point x="732" y="473" type="line" smooth="yes"/>
      <point x="730" y="295"/>
      <point x="671" y="205"/>
      <point x="555" y="205" type="curve" smooth="yes"/>
      <point x="434" y="205"/>
      <point x="375" y="293"/>
      <point x="375" y="484" type="curve" smooth="yes"/>
    </contour>
  </outline>
</glyph>
<glyph name="p" format="2">
  <advance width="1110"/>
  <unicode hex="0070"/>
  <note>
uni0070
</note>
  <outline>
    <contour>
      <point x="1058" y="514" type="curve" smooth="yes"/>
      <point x="1058" y="845"/>
      <point x="912" y="1045"/>
      <point x="653" y="1045" type="curve" smooth="yes"/>
      <point x="552" y="1045"/>
      <point x="468" y="1007"/>
      <point x="408" y="928" type="curve"/>
      <point x="396" y="1027" type="line"/>
      <point x="94" y="1027" type="line"/>
      <point x="94" y="-417" type="line"/>
      <point x="419" y="-417" type="line"/>
      <point x="419" y="69" type="line"/>
      <point x="479" y="0"/>
      <point x="558" y="-36"/>
      <point x="655" y="-36" type="curve" smooth="yes"/>
      <point x="885" y="-36"/>
      <point x="1058" y="144"/>
    </contour>
    <contour>
      <point x="734" y="516" type="curve" smooth="yes"/>
      <point x="732" y="322"/>
      <point x="694" y="215"/>
      <point x="574" y="215" type="curve" smooth="yes"/>
      <point x="500" y="215"/>
      <point x="447" y="243"/>
      <point x="419" y="301" type="curve"/>
      <point x="419" y="712" type="line"/>
      <point x="443" y="768"/>
      <point x="495" y="795"/>
      <point x="572" y="795" type="curve" smooth="yes"/>
      <point x="679" y="795"/>
      <point x="734" y="703"/>
    </contour>
  </outline>
</glyph>
<glyph name="r" format="2">
  <advance width="747"/>
  <unicode hex="0072"/>
  <note>
uni0072
</note>
  <outline>
    <contour>
      <point x="727" y="1049" type="line"/>
      <point x="701" y="1057"/>
      <point x="672" y="1062"/>
      <point x="637" y="1062" type="curve" smooth="yes"/>
      <point x="540" y="1062"/>
      <point x="464" y="1010"/>
      <point x="410" y="908" type="curve"/>
      <point x="398" y="1041" type="line"/>
      <point x="94" y="1041" type="line"/>
      <point x="94" y="0" type="line"/>
      <point x="419" y="0" type="line"/>
      <point x="419" y="660" type="line"/>
      <point x="447" y="725"/>
      <point x="512" y="757"/>
      <point x="615" y="757" type="curve"/>
      <point x="720" y="748" type="line"/>
    </contour>
  </outline>
</glyph>
<glyph name="s" format="2">
  <advance width="1010"/>
  <unicode hex="0073"/>
  <note>
uni0073
</note>
  <outline>
    <contour>
      <point x="638" y="268" type="curve" smooth="yes"/>
      <point x="638" y="211"/>
      <point x="592" y="169"/>
      <point x="505" y="169" type="curve" smooth="yes"/>
      <point x="409" y="169"/>
      <point x="339" y="212"/>
      <point x="336" y="309" type="curve"/>
      <point x="34" y="309" type="line"/>
      <point x="34" y="124"/>
      <point x="214" y="-45"/>
      <point x="496" y="-45" type="curve" smooth="yes"/>
      <point x="764" y="-45"/>
      <point x="951" y="88"/>
      <point x="951" y="277" type="curve" smooth="yes"/>
      <point x="951" y="417"/>
      <point x="873" y="513"/>
      <point x="716" y="565" type="curve" smooth="yes"/>
      <point x="612" y="602"/>
      <point x="374" y="613"/>
      <point x="374" y="723" type="curve" smooth="yes"/>
      <point x="374" y="780"/>
      <point x="427" y="823"/>
      <point x="496" y="823" type="curve" smooth="yes"/>
      <point x="583" y="823"/>
      <point x="627" y="780"/>
      <point x="627" y="696" type="curve"/>
      <point x="951" y="696" type="line"/>
      <point x="951" y="901"/>
      <point x="772" y="1034"/>
      <point x="496" y="1034" type="curve" smooth="yes"/>
      <point x="241" y="1034"/>
      <point x="68" y="897"/>
      <point x="68" y="707" type="curve" smooth="yes"/>
      <point x="68" y="542"/>
      <point x="192" y="438"/>
      <point x="428" y="385" type="curve" smooth="yes"/>
      <point x="503" y="369"/>
      <point x="638" y="345"/>
    </contour>
  </outline>
</glyph>
<glyph name="u" format="2">
  <advance width="1113"/>
  <unicode hex="0075"/>
  <note>
uni0075
</note>
  <outline>
    <contour>
      <point x="721" y="-25" type="line"/>
      <point x="1026" y="-25" type="line"/>
      <point x="1026" y="1016" type="line"/>
      <point x="699" y="1016" type="line"/>
      <point x="699" y="286" type="line"/>
      <point x="667" y="232"/>
      <point x="615" y="205"/>
      <point x="542" y="205" type="curve" smooth="yes"/>
      <point x="454" y="205"/>
      <point x="411" y="250"/>
      <point x="411" y="340" type="curve" smooth="yes"/>
      <point x="411" y="1016" type="line"/>
      <point x="86" y="1016" type="line"/>
      <point x="86" y="342" type="line" smooth="yes"/>
      <point x="86" y="90"/>
      <point x="205" y="-45"/>
      <point x="433" y="-45" type="curve" smooth="yes"/>
      <point x="551" y="-45"/>
      <point x="643" y="-1"/>
      <point x="710" y="88" type="curve"/>
    </contour>
  </outline>
</glyph>
<glyph name="x" format="2">
  <advance width="1016"/>
  <unicode hex="0078"/>
  <note>
uni0078
</note>
  <outline>
    <contour>
      <point x="368" y="1041" type="line"/>
      <point x="27" y="1041" type="line"/>
      <point x="300" y="536" type="line"/>
      <point x="11" y="0" type="line"/>
      <point x="353" y="0" type="line"/>
      <point x="514" y="309" type="line"/>
      <point x="678" y="0" type="line"/>
      <point x="1016" y="0" type="line"/>
      <point x="727" y="536" type="line"/>
      <point x="1002" y="1041" type="line"/>
      <point x="665" y="1041" type="line"/>
      <point x="514" y="757" type="line"/>
    </contour>
  </outline>
</glyph>
<glyph name="y" format="2">
  <advance width="1021"/>
  <unicode hex="0079"/>
  <note>
uni0079
</note>
  <outline>
    <contour>
      <point x="340" y="1027" type="line"/>
      <point x="-4" y="1027" type="line"/>
      <point x="357" y="-22" type="line"/>
      <point x="332" y="-92" type="line" smooth="yes"/>
      <point x="307" y="-162"/>
      <point x="265" y="-183"/>
      <point x="174" y="-183" type="curve" smooth="yes"/>
      <point x="134" y="-183" type="line"/>
      <point x="134" y="-415" type="line"/>
      <point x="181" y="-428"/>
      <point x="224" y="-434"/>
      <point x="267" y="-434" type="curve" smooth="yes"/>
      <point x="417" y="-434"/>
      <point x="525" y="-367"/>
      <point x="586" y="-232" type="curve" smooth="yes"/>
      <point x="604" y="-189" type="line"/>
      <point x="1028" y="1027" type="line"/>
      <point x="681" y="1027" type="line"/>
      <point x="508" y="439" type="line"/>
    </contour>
  </outline>
</glyph>
<glyph name="sterling" format="2">
  <advance width="1153"/>
  <unicode hex="00A3"/>
  <note>
uni00A3
</note>
  <outline>
    <contour>
      <point x="819" y="494" type="line"/>
      <point x="819" y="723" type="line"/>
      <point x="549" y="723" type="line"/>
      <point x="541" y="915" type="line"/>
      <point x="541" y="1016"/>
      <point x="580" y="1061"/>
      <point x="641" y="1061" type="curve" smooth="yes"/>
      <point x="721" y="1061"/>
      <point x="760" y="1016"/>
      <point x="760" y="924" type="curve"/>
      <point x="1051" y="924" type="line"/>
      <point x="1051" y="1155"/>
      <point x="895" y="1298"/>
      <point x="633" y="1298" type="curve" smooth="yes"/>
      <point x="387" y="1298"/>
      <point x="233" y="1155"/>
      <point x="233" y="915" type="curve" smooth="yes"/>
      <point x="238" y="723" type="line"/>
      <point x="102" y="723" type="line"/>
      <point x="102" y="494" type="line"/>
      <point x="246" y="494" type="line"/>
      <point x="248" y="328" type="line" smooth="yes"/>
      <point x="248" y="276"/>
      <point x="229" y="246"/>
      <point x="197" y="238" type="curve"/>
      <point x="104" y="238" type="line"/>
      <point x="104" y="0" type="line"/>
      <point x="1047" y="0" type="line"/>
      <point x="1047" y="238" type="line"/>
      <point x="512" y="238" type="line"/>
      <point x="545" y="276"/>
      <point x="563" y="328"/>
      <point x="563" y="395" type="curve" smooth="yes"/>
      <point x="559" y="494" type="line"/>
    </contour>
  </outline>
</glyph>
<glyph name="section" format="2">
  <advance width="1221"/>
  <unicode hex="00A7"/>
  <note>
uni00A7
</note>
  <outline>
    <contour>
      <point x="1118" y="698" type="curve" smooth="yes"/>
      <point x="1118" y="852.597"/>
      <point x="1037.734" y="949.975"/>
      <point x="882" y="1017" type="curve" smooth="yes"/>
      <point x="760.802" y="1069.161"/>
      <point x="559.499" y="1103.285"/>
      <point x="481" y="1151" type="curve" smooth="yes"/>
      <point x="447" y="1171.667"/>
      <point x="430" y="1202.333"/>
      <point x="430" y="1243" type="curve" smooth="yes"/>
      <point x="430" y="1313.667"/>
      <point x="492.667" y="1358"/>
      <point x="610" y="1358" type="curve" smooth="yes"/>
      <point x="722" y="1358"/>
      <point x="788" y="1296.667"/>
      <point x="788" y="1206" type="curve"/>
      <point x="1100" y="1206" type="line"/>
      <point x="1100" y="1452.667"/>
      <point x="916.667" y="1597"/>
      <point x="610" y="1597" type="curve" smooth="yes"/>
      <point x="310" y="1597"/>
      <point x="117" y="1457"/>
      <point x="117" y="1241" type="curve" smooth="yes"/>
      <point x="117" y="1127.667"/>
      <point x="160.667" y="1038.333"/>
      <point x="248" y="973" type="curve"/>
      <point x="150.667" y="915.667"/>
      <point x="102" y="832.333"/>
      <point x="102" y="723" type="curve" smooth="yes"/>
      <point x="102" y="489"/>
      <point x="302" y="406"/>
      <point x="519" y="345" type="curve" smooth="yes"/>
      <point x="615" y="318"/>
      <point x="791" y="280"/>
      <point x="791" y="180" type="curve" smooth="yes"/>
      <point x="791" y="110.667"/>
      <point x="731.333" y="76"/>
      <point x="612" y="76" type="curve" smooth="yes"/>
      <point x="473.333" y="76"/>
      <point x="414" y="122.333"/>
      <point x="414" y="213" type="curve"/>
      <point x="102" y="213" type="line"/>
      <point x="102" y="-29.667"/>
      <point x="285.333" y="-166"/>
      <point x="612" y="-166" type="curve" smooth="yes"/>
      <point x="918.667" y="-166"/>
      <point x="1102" y="-36"/>
      <point x="1102" y="180" type="curve" smooth="yes"/>
      <point x="1102" y="297.333"/>
      <point x="1059.667" y="387.667"/>
      <point x="975" y="451" type="curve"/>
      <point x="1070.333" y="507"/>
      <point x="1118" y="589.333"/>
    </contour>
    <contour>
      <point x="565" y="838" type="curve" smooth="yes"/>
      <point x="662.333" y="808"/>
      <point x="728" y="781"/>
      <point x="762" y="757" type="curve" smooth="yes"/>
      <point x="796" y="733"/>
      <point x="813" y="702"/>
      <point x="813" y="664" type="curve" smooth="yes"/>
      <point x="813" y="616"/>
      <point x="795.333" y="579"/>
      <point x="760" y="553" type="curve"/>
      <point x="502" y="648" type="line" smooth="yes"/>
      <point x="436" y="672"/>
      <point x="414" y="718.667"/>
      <point x="414" y="760" type="curve" smooth="yes"/>
      <point x="414" y="809.333"/>
      <point x="429" y="846"/>
      <point x="459" y="870" type="curve"/>
      <point x="493" y="858"/>
      <point x="528.333" y="847.333"/>
    </contour>
  </outline>
</glyph>
<glyph name="copyright" format="2">
  <advance width="1346"/>
  <unicode hex="00A9"/>
  <note>
uni00A9
</note>
  <outline>
    <contour>
      <point x="803" y="1257" type="line"/>
      <point x="803" y="1160"/>
      <point x="757" y="1124"/>
      <point x="662" y="1124" type="curve" smooth="yes"/>
      <point x="561" y="1124"/>
      <point x="504" y="1197"/>
      <point x="504" y="1309" type="curve" smooth="yes"/>
      <point x="504" y="1401" type="line" smooth="yes"/>
      <point x="507" y="1513"/>
      <point x="561" y="1583"/>
      <point x="662" y="1583" type="curve" smooth="yes"/>
      <point x="754" y="1583"/>
      <point x="805" y="1545"/>
      <point x="805" y="1452" type="curve"/>
      <point x="930" y="1452" type="line"/>
      <point x="930" y="1600"/>
      <point x="834" y="1683"/>
      <point x="662" y="1683" type="curve" smooth="yes"/>
      <point x="493" y="1683"/>
      <point x="381" y="1568"/>
      <point x="381" y="1399" type="curve" smooth="yes"/>
      <point x="381" y="1315" type="line" smooth="yes"/>
      <point x="381" y="1138"/>
      <point x="489" y="1024"/>
      <point x="662" y="1024" type="curve" smooth="yes"/>
      <point x="834" y="1024"/>
      <point x="930" y="1105"/>
      <point x="930" y="1257" type="curve"/>
    </contour>
    <contour>
      <point x="199" y="1354" type="curve" smooth="yes"/>
      <point x="199" y="1523"/>
      <point x="290" y="1674"/>
      <point x="435" y="1753" type="curve" smooth="yes"/>
      <point x="507" y="1792"/>
      <point x="586" y="1812"/>
      <point x="672" y="1812" type="curve" smooth="yes"/>
      <point x="847" y="1812"/>
      <point x="1004" y="1723"/>
      <point x="1084" y="1583" type="curve" smooth="yes"/>
      <point x="1123" y="1512"/>
      <point x="1143" y="1436"/>
      <point x="1143" y="1355" type="curve" smooth="yes"/>
      <point x="1143" y="1192"/>
      <point x="1061" y="1041"/>
      <point x="914" y="958" type="curve" smooth="yes"/>
      <point x="840" y="916"/>
      <point x="759" y="895"/>
      <point x="672" y="895" type="curve" smooth="yes"/>
      <point x="497" y="895"/>
      <point x="337" y="987"/>
      <point x="258" y="1128" type="curve" smooth="yes"/>
      <point x="219" y="1198"/>
      <point x="199" y="1273"/>
    </contour>
    <contour>
      <point x="102" y="1354" type="curve" smooth="yes"/>
      <point x="102" y="1154"/>
      <point x="208" y="973"/>
      <point x="384" y="875" type="curve" smooth="yes"/>
      <point x="472" y="826"/>
      <point x="568" y="801"/>
      <point x="672" y="801" type="curve" smooth="yes"/>
      <point x="876" y="801"/>
      <point x="1065" y="905"/>
      <point x="1167" y="1076" type="curve" smooth="yes"/>
      <point x="1218" y="1161"/>
      <point x="1243" y="1254"/>
      <point x="1243" y="1354" type="curve" smooth="yes"/>
      <point x="1243" y="1553"/>
      <point x="1137" y="1734"/>
      <point x="959" y="1833" type="curve" smooth="yes"/>
      <point x="870" y="1882"/>
      <point x="774" y="1907"/>
      <point x="672" y="1907" type="curve" smooth="yes"/>
      <point x="467" y="1907"/>
      <point x="277" y="1802"/>
      <point x="177" y="1631" type="curve" smooth="yes"/>
      <point x="127" y="1546"/>
      <point x="102" y="1453"/>
    </contour>
  </outline>
</glyph>
<glyph name="plusminus" format="2">
  <advance width="1083"/>
  <unicode hex="00B1"/>
  <note>
uni002B
</note>
  <outline>
    <contour>
      <point x="682" y="1317" type="line"/>
      <point x="403" y="1317" type="line"/>
      <point x="403" y="1030" type="line"/>
      <point x="102" y="1030" type="line"/>
      <point x="102" y="776" type="line"/>
      <point x="403" y="776" type="line"/>
      <point x="403" y="506" type="line"/>
      <point x="682" y="506" type="line"/>
      <point x="682" y="776" type="line"/>
      <point x="981" y="776" type="line"/>
      <point x="981" y="1030" type="line"/>
      <point x="682" y="1030" type="line"/>
    </contour>
    <contour>
      <point x="981" y="438" type="line"/>
      <point x="102" y="438" type="line"/>
      <point x="102" y="184" type="line"/>
      <point x="981" y="184" type="line"/>
    </contour>
  </outline>
</glyph>
<glyph name="paragraph" format="2">
  <advance width="872"/>
  <unicode hex="00B6"/>
  <note>
uni00B6
</note>
  <outline>
    <contour>
      <point x="791" y="0" type="line"/>
      <point x="791" y="1282" type="line"/>
      <point x="518" y="1282" type="line" smooth="yes"/>
      <point x="248" y="1282"/>
      <point x="82" y="1120"/>
      <point x="82" y="870" type="curve" smooth="yes"/>
      <point x="82" y="618"/>
      <point x="248" y="459"/>
      <point x="518" y="459" type="curve" smooth="yes"/>
      <point x="588" y="459" type="line"/>
      <point x="588" y="0" type="line"/>
    </contour>
  </outline>
</glyph>
<glyph name="Aacute" format="2">
  <advance width="1342"/>
  <unicode hex="00C1"/>
  <note>
uni00C1
</note>
  <outline>
    <contour>
      <point x="983" y="0" type="line"/>
      <point x="1346" y="0" type="line"/>
      <point x="828" y="1404" type="line"/>
      <point x="510" y="1404" type="line"/>
      <point x="-3" y="0" type="line"/>
      <point x="357" y="0" type="line"/>
      <point x="438" y="262" type="line"/>
      <point x="900" y="262" type="line"/>
    </contour>
    <contour>
      <point x="670" y="1010" type="line"/>
      <point x="821" y="523" type="line"/>
      <point x="519" y="523" type="line"/>
    </contour>
    <contour>
      <point x="524" y="1475" type="line"/>
      <point x="790" y="1475" type="line"/>
      <point x="1058" y="1778" type="line"/>
      <point x="713" y="1778" type="line"/>
    </contour>
  </outline>
</glyph>
<glyph name="Adieresis" format="2">
  <advance width="1342"/>
  <unicode hex="00C4"/>
  <note>
uni00C4
</note>
  <outline>
    <contour>
      <point x="983" y="0" type="line"/>
      <point x="1346" y="0" type="line"/>
      <point x="828" y="1404" type="line"/>
      <point x="510" y="1404" type="line"/>
      <point x="-3" y="0" type="line"/>
      <point x="357" y="0" type="line"/>
      <point x="438" y="262" type="line"/>
      <point x="900" y="262" type="line"/>
    </contour>
    <contour>
      <point x="670" y="1010" type="line"/>
      <point x="821" y="523" type="line"/>
      <point x="519" y="523" type="line"/>
    </contour>
    <contour>
      <point x="276" y="1613" type="curve" smooth="yes"/>
      <point x="276" y="1544"/>
      <point x="339" y="1485"/>
      <point x="421" y="1485" type="curve" smooth="yes"/>
      <point x="504" y="1485"/>
      <point x="566" y="1543"/>
      <point x="566" y="1614" type="curve" smooth="yes"/>
      <point x="566" y="1685"/>
      <point x="504" y="1739"/>
      <point x="421" y="1739" type="curve" smooth="yes"/>
      <point x="339" y="1739"/>
      <point x="276" y="1685"/>
    </contour>
    <contour>
      <point x="777" y="1613" type="curve" smooth="yes"/>
      <point x="777" y="1544"/>
      <point x="839" y="1485"/>
      <point x="922" y="1485" type="curve" smooth="yes"/>
      <point x="1004" y="1485"/>
      <point x="1067" y="1543"/>
      <point x="1067" y="1614" type="curve" smooth="yes"/>
      <point x="1067" y="1685"/>
      <point x="1004" y="1739"/>
      <point x="922" y="1739" type="curve" smooth="yes"/>
      <point x="839" y="1739"/>
      <point x="777" y="1685"/>
    </contour>
  </outline>
</glyph>
<glyph name="AE" format="2">
  <advance width="1855"/>
  <unicode hex="00C6"/>
  <note>
uni00C6
</note>
  <outline>
    <contour>
      <point x="1783" y="254" type="line"/>
      <point x="1231" y="254" type="line"/>
      <point x="1218" y="591" type="line"/>
      <point x="1646" y="591" type="line"/>
      <point x="1646" y="845" type="line"/>
      <point x="1206" y="845" type="line"/>
      <point x="1195" y="1148" type="line"/>
      <point x="1724" y="1148" type="line"/>
      <point x="1724" y="1404" type="line"/>
      <point x="722" y="1404" type="line"/>
      <point x="15" y="0" type="line"/>
      <point x="389" y="0" type="line"/>
      <point x="535" y="316" type="line"/>
      <point x="905" y="316" type="line"/>
      <point x="918" y="0" type="line"/>
      <point x="1783" y="0" type="line"/>
    </contour>
    <contour>
      <point x="873" y="1045" type="line"/>
      <point x="894" y="576" type="line"/>
      <point x="657" y="576" type="line"/>
    </contour>
  </outline>
</glyph>
<glyph name="Ccedilla" format="2">
  <advance width="1293"/>
  <unicode hex="00C7"/>
  <note>
uni00C7
</note>
  <outline>
    <contour>
      <point x="905" y="473" type="line"/>
      <point x="898" y="314"/>
      <point x="817" y="241"/>
      <point x="662" y="241" type="curve" smooth="yes"/>
      <point x="479" y="241"/>
      <point x="411" y="361"/>
      <point x="411" y="660" type="curve" smooth="yes"/>
      <point x="411" y="759" type="line" smooth="yes"/>
      <point x="411" y="1036"/>
      <point x="488" y="1154"/>
      <point x="656" y="1154" type="curve" smooth="yes"/>
      <point x="821" y="1154"/>
      <point x="900" y="1086"/>
      <point x="907" y="917" type="curve"/>
      <point x="1242" y="917" type="line"/>
      <point x="1215" y="1230"/>
      <point x="997" y="1419"/>
      <point x="656" y="1419" type="curve" smooth="yes"/>
      <point x="292" y="1419"/>
      <point x="67" y="1154"/>
      <point x="67" y="737" type="curve" smooth="yes"/>
      <point x="67" y="667" type="line" smooth="yes"/>
      <point x="67" y="228"/>
      <point x="292" y="-22"/>
      <point x="662" y="-22" type="curve" smooth="yes"/>
      <point x="1004" y="-22"/>
      <point x="1227" y="176"/>
      <point x="1240" y="473" type="curve"/>
    </contour>
    <contour>
      <point x="542" y="7" type="line"/>
      <point x="512" y="-133" type="line"/>
      <point x="570" y="-138"/>
      <point x="641" y="-144"/>
      <point x="641" y="-202" type="curve" smooth="yes"/>
      <point x="641" y="-252"/>
      <point x="612" y="-277"/>
      <point x="555" y="-277" type="curve"/>
      <point x="562" y="-458" type="line"/>
      <point x="789" y="-458"/>
      <point x="922" y="-370"/>
      <point x="922" y="-219" type="curve" smooth="yes"/>
      <point x="922" y="-126"/>
      <point x="875" y="-69"/>
      <point x="778" y="-52" type="curve"/>
      <point x="787" y="7" type="line"/>
    </contour>
  </outline>
</glyph>
<glyph name="Eacute" format="2">
  <advance width="1103"/>
  <unicode hex="00C9"/>
  <note>
uni00C9
</note>
  <outline>
    <contour>
      <point x="975" y="845" type="line"/>
      <point x="444" y="845" type="line"/>
      <point x="444" y="1140" type="line"/>
      <point x="1073" y="1140" type="line"/>
      <point x="1073" y="1404" type="line"/>
      <point x="106" y="1404" type="line"/>
      <point x="106" y="0" type="line"/>
      <point x="1070" y="0" type="line"/>
      <point x="1070" y="260" type="line"/>
      <point x="444" y="260" type="line"/>
      <point x="444" y="595" type="line"/>
      <point x="975" y="595" type="line"/>
    </contour>
    <contour>
      <point x="471" y="1475" type="line"/>
      <point x="734" y="1475" type="line"/>
      <point x="1003" y="1778" type="line"/>
      <point x="661" y="1778" type="line"/>
    </contour>
  </outline>
</glyph>
<glyph name="Ecircumflex" format="2">
  <advance width="1103"/>
  <unicode hex="00CA"/>
  <note>
uni00CA
</note>
  <outline>
    <contour>
      <point x="975" y="845" type="line"/>
      <point x="444" y="845" type="line"/>
      <point x="444" y="1140" type="line"/>
      <point x="1073" y="1140" type="line"/>
      <point x="1073" y="1404" type="line"/>
      <point x="106" y="1404" type="line"/>
      <point x="106" y="0" type="line"/>
      <point x="1070" y="0" type="line"/>
      <point x="1070" y="260" type="line"/>
      <point x="444" y="260" type="line"/>
      <point x="444" y="595" type="line"/>
      <point x="975" y="595" type="line"/>
    </contour>
    <contour>
      <point x="714" y="1778" type="line"/>
      <point x="525" y="1778" type="line"/>
      <point x="216" y="1511" type="line"/>
      <point x="216" y="1494" type="line"/>
      <point x="467" y="1494" type="line"/>
      <point x="620" y="1625" type="line"/>
      <point x="773" y="1494" type="line"/>
      <point x="1028" y="1494" type="line"/>
      <point x="1028" y="1507" type="line"/>
    </contour>
  </outline>
</glyph>
<glyph name="Igrave" format="2">
  <advance width="596"/>
  <unicode hex="00CC"/>
  <note>
uni00CC
</note>
  <outline>
    <contour>
      <point x="467" y="1404" type="line"/>
      <point x="128" y="1404" type="line"/>
      <point x="128" y="0" type="line"/>
      <point x="467" y="0" type="line"/>
    </contour>
    <contour>
      <point x="261" y="1778" type="line"/>
      <point x="-83" y="1778" type="line"/>
      <point x="190" y="1475" type="line"/>
      <point x="453" y="1475" type="line"/>
    </contour>
  </outline>
</glyph>
<glyph name="Iacute" format="2">
  <advance width="593"/>
  <unicode hex="00CD"/>
  <note>
uni00CD
</note>
  <outline>
    <contour>
      <point x="467" y="1404" type="line"/>
      <point x="129" y="1404" type="line"/>
      <point x="129" y="0" type="line"/>
      <point x="467" y="0" type="line"/>
    </contour>
    <contour>
      <point x="149" y="1475" type="line"/>
      <point x="413" y="1475" type="line"/>
      <point x="679" y="1778" type="line"/>
      <point x="338" y="1778" type="line"/>
    </contour>
  </outline>
</glyph>
<glyph name="Idieresis" format="2">
  <advance width="596"/>
  <unicode hex="00CF"/>
  <note>
uni00CF
</note>
  <outline>
    <contour>
      <point x="466" y="1404" type="line"/>
      <point x="129" y="1404" type="line"/>
      <point x="129" y="0" type="line"/>
      <point x="466" y="0" type="line"/>
    </contour>
    <contour>
      <point x="-99" y="1613" type="curve" smooth="yes"/>
      <point x="-99" y="1544"/>
      <point x="-36" y="1485"/>
      <point x="46" y="1485" type="curve" smooth="yes"/>
      <point x="129" y="1485"/>
      <point x="191" y="1543"/>
      <point x="191" y="1614" type="curve" smooth="yes"/>
      <point x="191" y="1685"/>
      <point x="129" y="1739"/>
      <point x="46" y="1739" type="curve" smooth="yes"/>
      <point x="-36" y="1739"/>
      <point x="-99" y="1685"/>
    </contour>
    <contour>
      <point x="402" y="1613" type="curve" smooth="yes"/>
      <point x="402" y="1544"/>
      <point x="464" y="1485"/>
      <point x="547" y="1485" type="curve" smooth="yes"/>
      <point x="629" y="1485"/>
      <point x="692" y="1543"/>
      <point x="692" y="1614" type="curve" smooth="yes"/>
      <point x="692" y="1685"/>
      <point x="629" y="1739"/>
      <point x="547" y="1739" type="curve" smooth="yes"/>
      <point x="464" y="1739"/>
      <point x="402" y="1685"/>
    </contour>
  </outline>
</glyph>
<glyph name="Ntilde" format="2">
  <advance width="1383"/>
  <unicode hex="00D1"/>
  <note>
uni00D1
</note>
  <outline>
    <contour>
      <point x="1275" y="1404" type="line"/>
      <point x="940" y="1404" type="line"/>
      <point x="940" y="529" type="line"/>
      <point x="444" y="1404" type="line"/>
      <point x="106" y="1404" type="line"/>
      <point x="106" y="0" type="line"/>
      <point x="444" y="0" type="line"/>
      <point x="444" y="875" type="line"/>
      <point x="940" y="0" type="line"/>
      <point x="1275" y="0" type="line"/>
    </contour>
    <contour>
      <point x="892" y="1780" type="line"/>
      <point x="892" y="1719"/>
      <point x="857" y="1694"/>
      <point x="818" y="1694" type="curve" smooth="yes"/>
      <point x="769" y="1694"/>
      <point x="743" y="1707"/>
      <point x="675" y="1738" type="curve" smooth="yes"/>
      <point x="623" y="1761"/>
      <point x="580" y="1773"/>
      <point x="547" y="1773" type="curve" smooth="yes"/>
      <point x="422" y="1773"/>
      <point x="327" y="1653"/>
      <point x="327" y="1509" type="curve"/>
      <point x="506" y="1500" type="line"/>
      <point x="506" y="1561"/>
      <point x="539" y="1586"/>
      <point x="581" y="1586" type="curve" smooth="yes"/>
      <point x="613" y="1586"/>
      <point x="655" y="1573"/>
      <point x="708" y="1546" type="curve" smooth="yes"/>
      <point x="760" y="1518"/>
      <point x="807" y="1505"/>
      <point x="847" y="1505" type="curve" smooth="yes"/>
      <point x="973" y="1505"/>
      <point x="1069" y="1620"/>
      <point x="1069" y="1771" type="curve"/>
    </contour>
  </outline>
</glyph>
<glyph name="Otilde" format="2">
  <advance width="1361"/>
  <unicode hex="00D5"/>
  <note>
uni00D5
</note>
  <outline>
    <contour>
      <point x="1293" y="712" type="line"/>
      <point x="1293" y="1121"/>
      <point x="1042" y="1397"/>
      <point x="680" y="1397" type="curve" smooth="yes"/>
      <point x="317" y="1397"/>
      <point x="67" y="1131"/>
      <point x="67" y="703" type="curve" smooth="yes"/>
      <point x="67" y="624" type="line" smooth="yes"/>
      <point x="76" y="218"/>
      <point x="316" y="-45"/>
      <point x="682" y="-45" type="curve" smooth="yes"/>
      <point x="1051" y="-45"/>
      <point x="1293" y="226"/>
      <point x="1293" y="647" type="curve" smooth="yes"/>
    </contour>
    <contour>
      <point x="951" y="640" type="line"/>
      <point x="951" y="366"/>
      <point x="854" y="219"/>
      <point x="682" y="219" type="curve" smooth="yes"/>
      <point x="502" y="219"/>
      <point x="412" y="371"/>
      <point x="412" y="647" type="curve" smooth="yes"/>
      <point x="412" y="750" type="line" smooth="yes"/>
      <point x="423" y="1004"/>
      <point x="512" y="1131"/>
      <point x="680" y="1131" type="curve" smooth="yes"/>
      <point x="854" y="1131"/>
      <point x="951" y="985"/>
      <point x="951" y="705" type="curve" smooth="yes"/>
    </contour>
    <contour>
      <point x="871" y="1755" type="line"/>
      <point x="871" y="1695"/>
      <point x="837" y="1668"/>
      <point x="794" y="1668" type="curve" smooth="yes"/>
      <point x="750" y="1668"/>
      <point x="724" y="1680"/>
      <point x="653" y="1711" type="curve" smooth="yes"/>
      <point x="601" y="1735"/>
      <point x="559" y="1746"/>
      <point x="529" y="1746" type="curve" smooth="yes"/>
      <point x="403" y="1746"/>
      <point x="306" y="1629"/>
      <point x="306" y="1485" type="curve"/>
      <point x="486" y="1475" type="line"/>
      <point x="486" y="1532"/>
      <point x="519" y="1561"/>
      <point x="558" y="1561" type="curve" smooth="yes"/>
      <point x="591" y="1561"/>
      <point x="634" y="1548"/>
      <point x="687" y="1520" type="curve" smooth="yes"/>
      <point x="739" y="1494"/>
      <point x="786" y="1481"/>
      <point x="826" y="1481" type="curve" smooth="yes"/>
      <point x="956" y="1481"/>
      <point x="1050" y="1596"/>
      <point x="1050" y="1744" type="curve"/>
    </contour>
  </outline>
</glyph>
<glyph name="Odieresis" format="2">
  <advance width="1361"/>
  <unicode hex="00D6"/>
  <note>
uni00D6
</note>
  <outline>
    <contour>
      <point x="1293" y="712" type="line"/>
      <point x="1293" y="1121"/>
      <point x="1042" y="1397"/>
      <point x="680" y="1397" type="curve" smooth="yes"/>
      <point x="317" y="1397"/>
      <point x="67" y="1131"/>
      <point x="67" y="703" type="curve" smooth="yes"/>
      <point x="67" y="624" type="line" smooth="yes"/>
      <point x="76" y="218"/>
      <point x="316" y="-45"/>
      <point x="682" y="-45" type="curve" smooth="yes"/>
      <point x="1051" y="-45"/>
      <point x="1293" y="226"/>
      <point x="1293" y="647" type="curve" smooth="yes"/>
    </contour>
    <contour>
      <point x="951" y="640" type="line"/>
      <point x="951" y="366"/>
      <point x="854" y="219"/>
      <point x="682" y="219" type="curve" smooth="yes"/>
      <point x="502" y="219"/>
      <point x="412" y="371"/>
      <point x="412" y="647" type="curve" smooth="yes"/>
      <point x="412" y="750" type="line" smooth="yes"/>
      <point x="423" y="1004"/>
      <point x="512" y="1131"/>
      <point x="680" y="1131" type="curve" smooth="yes"/>
      <point x="854" y="1131"/>
      <point x="951" y="985"/>
      <point x="951" y="705" type="curve" smooth="yes"/>
    </contour>
    <contour>
      <point x="281" y="1588" type="curve" smooth="yes"/>
      <point x="281" y="1516"/>
      <point x="347" y="1460"/>
      <point x="428" y="1460" type="curve" smooth="yes"/>
      <point x="508" y="1460"/>
      <point x="574" y="1517"/>
      <point x="574" y="1587" type="curve" smooth="yes"/>
      <point x="574" y="1658"/>
      <point x="508" y="1715"/>
      <point x="428" y="1715" type="curve" smooth="yes"/>
      <point x="347" y="1715"/>
      <point x="281" y="1658"/>
    </contour>
    <contour>
      <point x="781" y="1588" type="curve" smooth="yes"/>
      <point x="781" y="1516"/>
      <point x="847" y="1460"/>
      <point x="928" y="1460" type="curve" smooth="yes"/>
      <point x="1009" y="1460"/>
      <point x="1074" y="1517"/>
      <point x="1074" y="1587" type="curve" smooth="yes"/>
      <point x="1074" y="1658"/>
      <point x="1009" y="1715"/>
      <point x="928" y="1715" type="curve" smooth="yes"/>
      <point x="847" y="1715"/>
      <point x="781" y="1658"/>
    </contour>
  </outline>
</glyph>
<glyph name="Uacute" format="2">
  <advance width="1309"/>
  <unicode hex="00DA"/>
  <note>
uni00DA
</note>
  <outline>
    <contour>
      <point x="866" y="1376" type="line"/>
      <point x="866" y="462" type="line" smooth="yes"/>
      <point x="866" y="285"/>
      <point x="794" y="215"/>
      <point x="653" y="215" type="curve" smooth="yes"/>
      <point x="514" y="215"/>
      <point x="444" y="292"/>
      <point x="441" y="447" type="curve" smooth="yes"/>
      <point x="441" y="1376" type="line"/>
      <point x="101" y="1376" type="line"/>
      <point x="101" y="451" type="line" smooth="yes"/>
      <point x="104" y="144"/>
      <point x="313" y="-45"/>
      <point x="653" y="-45" type="curve" smooth="yes"/>
      <point x="996" y="-45"/>
      <point x="1204" y="141"/>
      <point x="1204" y="460" type="curve" smooth="yes"/>
      <point x="1204" y="1376" type="line"/>
    </contour>
    <contour>
      <point x="501" y="1449" type="line"/>
      <point x="765" y="1449" type="line"/>
      <point x="1034" y="1752" type="line"/>
      <point x="690" y="1752" type="line"/>
    </contour>
  </outline>
</glyph>
<glyph name="Udieresis" format="2">
  <advance width="1309"/>
  <unicode hex="00DC"/>
  <note>
uni00DC
</note>
  <outline>
    <contour>
      <point x="866" y="1376" type="line"/>
      <point x="866" y="462" type="line" smooth="yes"/>
      <point x="866" y="285"/>
      <point x="794" y="215"/>
      <point x="653" y="215" type="curve" smooth="yes"/>
      <point x="514" y="215"/>
      <point x="444" y="292"/>
      <point x="441" y="447" type="curve" smooth="yes"/>
      <point x="441" y="1376" type="line"/>
      <point x="101" y="1376" type="line"/>
      <point x="101" y="451" type="line" smooth="yes"/>
      <point x="104" y="144"/>
      <point x="313" y="-45"/>
      <point x="653" y="-45" type="curve" smooth="yes"/>
      <point x="996" y="-45"/>
      <point x="1204" y="141"/>
      <point x="1204" y="460" type="curve" smooth="yes"/>
      <point x="1204" y="1376" type="line"/>
    </contour>
    <contour>
      <point x="252" y="1588" type="curve" smooth="yes"/>
      <point x="252" y="1516"/>
      <point x="314" y="1460"/>
      <point x="397" y="1460" type="curve" smooth="yes"/>
      <point x="479" y="1460"/>
      <point x="542" y="1517"/>
      <point x="542" y="1587" type="curve" smooth="yes"/>
      <point x="542" y="1658"/>
      <point x="479" y="1715"/>
      <point x="397" y="1715" type="curve" smooth="yes"/>
      <point x="314" y="1715"/>
      <point x="252" y="1658"/>
    </contour>
    <contour>
      <point x="752" y="1588" type="curve" smooth="yes"/>
      <point x="752" y="1516"/>
      <point x="815" y="1460"/>
      <point x="897" y="1460" type="curve" smooth="yes"/>
      <point x="980" y="1460"/>
      <point x="1042" y="1517"/>
      <point x="1042" y="1587" type="curve" smooth="yes"/>
      <point x="1042" y="1658"/>
      <point x="980" y="1715"/>
      <point x="897" y="1715" type="curve" smooth="yes"/>
      <point x="815" y="1715"/>
      <point x="752" y="1658"/>
    </contour>
  </outline>
</glyph>
<glyph name="agrave" format="2">
  <advance width="1047"/>
  <unicode hex="00E0"/>
  <note>
uni00E0
</note>
  <outline>
    <contour>
      <point x="1003" y="-25" type="line"/>
      <point x="1003" y="-9" type="line"/>
      <point x="974" y="41"/>
      <point x="960" y="114"/>
      <point x="958" y="212" type="curve" smooth="yes"/>
      <point x="958" y="671" type="line" smooth="yes"/>
      <point x="955" y="900"/>
      <point x="793" y="1034"/>
      <point x="525" y="1034" type="curve" smooth="yes"/>
      <point x="258" y="1034"/>
      <point x="68" y="898"/>
      <point x="68" y="696" type="curve"/>
      <point x="392" y="696" type="line"/>
      <point x="392" y="771"/>
      <point x="431" y="809"/>
      <point x="508" y="809" type="curve" smooth="yes"/>
      <point x="591" y="809"/>
      <point x="633" y="761"/>
      <point x="633" y="667" type="curve" smooth="yes"/>
      <point x="633" y="611" type="line"/>
      <point x="532" y="611" type="line" smooth="yes"/>
      <point x="214" y="611"/>
      <point x="43" y="494"/>
      <point x="43" y="268" type="curve" smooth="yes"/>
      <point x="43" y="88"/>
      <point x="202" y="-45"/>
      <point x="397" y="-45" type="curve" smooth="yes"/>
      <point x="503" y="-45"/>
      <point x="587" y="-8"/>
      <point x="647" y="67" type="curve"/>
      <point x="656" y="28"/>
      <point x="667" y="-3"/>
      <point x="678" y="-25" type="curve"/>
    </contour>
    <contour>
      <point x="476" y="185" type="curve" smooth="yes"/>
      <point x="413" y="185"/>
      <point x="370" y="226"/>
      <point x="370" y="286" type="curve" smooth="yes"/>
      <point x="370" y="387"/>
      <point x="425" y="437"/>
      <point x="536" y="437" type="curve" smooth="yes"/>
      <point x="633" y="437" type="line"/>
      <point x="633" y="271" type="line"/>
      <point x="610" y="229"/>
      <point x="554" y="185"/>
    </contour>
    <contour>
      <point x="476" y="1453" type="line"/>
      <point x="134" y="1453" type="line"/>
      <point x="404" y="1152" type="line"/>
      <point x="667" y="1152" type="line"/>
    </contour>
  </outline>
</glyph>
<glyph name="atilde" format="2">
  <advance width="1047"/>
  <unicode hex="00E3"/>
  <note>
uni00E3
</note>
  <outline>
    <contour>
      <point x="1003" y="-25" type="line"/>
      <point x="1003" y="-9" type="line"/>
      <point x="974" y="41"/>
      <point x="960" y="114"/>
      <point x="958" y="212" type="curve" smooth="yes"/>
      <point x="958" y="671" type="line" smooth="yes"/>
      <point x="955" y="900"/>
      <point x="793" y="1034"/>
      <point x="525" y="1034" type="curve" smooth="yes"/>
      <point x="258" y="1034"/>
      <point x="68" y="898"/>
      <point x="68" y="696" type="curve"/>
      <point x="392" y="696" type="line"/>
      <point x="392" y="771"/>
      <point x="431" y="809"/>
      <point x="508" y="809" type="curve" smooth="yes"/>
      <point x="591" y="809"/>
      <point x="633" y="761"/>
      <point x="633" y="667" type="curve" smooth="yes"/>
      <point x="633" y="611" type="line"/>
      <point x="532" y="611" type="line" smooth="yes"/>
      <point x="214" y="611"/>
      <point x="43" y="494"/>
      <point x="43" y="268" type="curve" smooth="yes"/>
      <point x="43" y="88"/>
      <point x="202" y="-45"/>
      <point x="397" y="-45" type="curve" smooth="yes"/>
      <point x="503" y="-45"/>
      <point x="587" y="-8"/>
      <point x="647" y="67" type="curve"/>
      <point x="656" y="28"/>
      <point x="667" y="-3"/>
      <point x="678" y="-25" type="curve"/>
    </contour>
    <contour>
      <point x="476" y="185" type="curve" smooth="yes"/>
      <point x="413" y="185"/>
      <point x="370" y="226"/>
      <point x="370" y="286" type="curve" smooth="yes"/>
      <point x="370" y="387"/>
      <point x="425" y="437"/>
      <point x="536" y="437" type="curve" smooth="yes"/>
      <point x="633" y="437" type="line"/>
      <point x="633" y="271" type="line"/>
      <point x="610" y="229"/>
      <point x="554" y="185"/>
    </contour>
    <contour>
      <point x="708" y="1458" type="line"/>
      <point x="708" y="1397"/>
      <point x="674" y="1370"/>
      <point x="631" y="1370" type="curve" smooth="yes"/>
      <point x="531" y="1370"/>
      <point x="466" y="1449"/>
      <point x="364" y="1449" type="curve" smooth="yes"/>
      <point x="240" y="1449"/>
      <point x="140" y="1329"/>
      <point x="140" y="1187" type="curve"/>
      <point x="321" y="1178" type="line"/>
      <point x="321" y="1235"/>
      <point x="356" y="1264"/>
      <point x="394" y="1264" type="curve" smooth="yes"/>
      <point x="427" y="1264"/>
      <point x="470" y="1251"/>
      <point x="522" y="1223" type="curve" smooth="yes"/>
      <point x="574" y="1196"/>
      <point x="621" y="1183"/>
      <point x="663" y="1183" type="curve" smooth="yes"/>
      <point x="789" y="1183"/>
      <point x="886" y="1299"/>
      <point x="886" y="1447" type="curve"/>
    </contour>
  </outline>
</glyph>
<glyph name="ccedilla" format="2">
  <advance width="1024"/>
  <unicode hex="00E7"/>
  <note>
uni00E7
</note>
  <outline>
    <contour>
      <point x="529" y="220" type="curve" smooth="yes"/>
      <point x="425" y="220"/>
      <point x="364" y="289"/>
      <point x="374" y="497" type="curve" smooth="yes"/>
      <point x="381" y="639" type="line" smooth="yes"/>
      <point x="386" y="748"/>
      <point x="444" y="801"/>
      <point x="527" y="801" type="curve" smooth="yes"/>
      <point x="617" y="801"/>
      <point x="674" y="740"/>
      <point x="674" y="633" type="curve"/>
      <point x="978" y="633" type="line"/>
      <point x="978" y="891"/>
      <point x="807" y="1052"/>
      <point x="536" y="1052" type="curve" smooth="yes"/>
      <point x="234" y="1052"/>
      <point x="50" y="844"/>
      <point x="50" y="521" type="curve" smooth="yes"/>
      <point x="50" y="508" type="line" smooth="yes"/>
      <point x="50" y="172"/>
      <point x="236" y="-30"/>
      <point x="538" y="-30" type="curve" smooth="yes"/>
      <point x="797" y="-30"/>
      <point x="978" y="131"/>
      <point x="978" y="362" type="curve"/>
      <point x="674" y="362" type="line"/>
      <point x="674" y="272"/>
      <point x="623" y="220"/>
    </contour>
    <contour>
      <point x="424" y="-1" type="line"/>
      <point x="394" y="-141" type="line"/>
      <point x="442" y="-145"/>
      <point x="525" y="-150"/>
      <point x="525" y="-210" type="curve" smooth="yes"/>
      <point x="525" y="-260"/>
      <point x="496" y="-285"/>
      <point x="439" y="-285" type="curve"/>
      <point x="446" y="-465" type="line"/>
      <point x="671" y="-465"/>
      <point x="807" y="-376"/>
      <point x="807" y="-227" type="curve" smooth="yes"/>
      <point x="807" y="-133"/>
      <point x="758" y="-77"/>
      <point x="663" y="-59" type="curve"/>
      <point x="671" y="-1" type="line"/>
    </contour>
  </outline>
</glyph>
<glyph name="egrave" format="2">
  <advance width="1074"/>
  <unicode hex="00E8"/>
  <note>
uni00E8
</note>
  <outline>
    <contour>
      <point x="594" y="-45" type="curve" smooth="yes"/>
      <point x="766" y="-45"/>
      <point x="927" y="26"/>
      <point x="1005" y="138" type="curve"/>
      <point x="858" y="314" type="line"/>
      <point x="800" y="241"/>
      <point x="720" y="205"/>
      <point x="617" y="205" type="curve" smooth="yes"/>
      <point x="491" y="205"/>
      <point x="411" y="275"/>
      <point x="390" y="392" type="curve"/>
      <point x="1034" y="392" type="line"/>
      <point x="1034" y="520" type="line" smooth="yes"/>
      <point x="1034" y="845"/>
      <point x="852" y="1034"/>
      <point x="561" y="1034" type="curve" smooth="yes"/>
      <point x="239" y="1034"/>
      <point x="59" y="816"/>
      <point x="59" y="498" type="curve" smooth="yes"/>
      <point x="59" y="471" type="line" smooth="yes"/>
      <point x="59" y="165"/>
      <point x="276" y="-45"/>
    </contour>
    <contour>
      <point x="559" y="784" type="curve" smooth="yes"/>
      <point x="660" y="784"/>
      <point x="720" y="724"/>
      <point x="716" y="622" type="curve" smooth="yes"/>
      <point x="716" y="595" type="line"/>
      <point x="390" y="595" type="line"/>
      <point x="407" y="721"/>
      <point x="465" y="784"/>
    </contour>
    <contour>
      <point x="476" y="1455" type="line"/>
      <point x="133" y="1455" type="line"/>
      <point x="403" y="1152" type="line"/>
      <point x="669" y="1152" type="line"/>
    </contour>
  </outline>
</glyph>
<glyph name="edieresis" format="2">
  <advance width="1074"/>
  <unicode hex="00EB"/>
  <note>
uni00EB
</note>
  <outline>
    <contour>
      <point x="594" y="-45" type="curve" smooth="yes"/>
      <point x="766" y="-45"/>
      <point x="927" y="26"/>
      <point x="1005" y="138" type="curve"/>
      <point x="858" y="314" type="line"/>
      <point x="800" y="241"/>
      <point x="720" y="205"/>
      <point x="617" y="205" type="curve" smooth="yes"/>
      <point x="491" y="205"/>
      <point x="411" y="275"/>
      <point x="390" y="392" type="curve"/>
      <point x="1034" y="392" type="line"/>
      <point x="1034" y="520" type="line" smooth="yes"/>
      <point x="1034" y="845"/>
      <point x="852" y="1034"/>
      <point x="561" y="1034" type="curve" smooth="yes"/>
      <point x="239" y="1034"/>
      <point x="59" y="816"/>
      <point x="59" y="498" type="curve" smooth="yes"/>
      <point x="59" y="471" type="line" smooth="yes"/>
      <point x="59" y="165"/>
      <point x="276" y="-45"/>
    </contour>
    <contour>
      <point x="559" y="784" type="curve" smooth="yes"/>
      <point x="660" y="784"/>
      <point x="720" y="724"/>
      <point x="716" y="622" type="curve" smooth="yes"/>
      <point x="716" y="595" type="line"/>
      <point x="390" y="595" type="line"/>
      <point x="407" y="721"/>
      <point x="465" y="784"/>
    </contour>
    <contour>
      <point x="117" y="1288" type="curve" smooth="yes"/>
      <point x="117" y="1220"/>
      <point x="177" y="1163"/>
      <point x="261" y="1163" type="curve" smooth="yes"/>
      <point x="346" y="1163"/>
      <point x="405" y="1219"/>
      <point x="405" y="1289" type="curve" smooth="yes"/>
      <point x="405" y="1361"/>
      <point x="346" y="1417"/>
      <point x="261" y="1417" type="curve" smooth="yes"/>
      <point x="177" y="1417"/>
      <point x="117" y="1361"/>
    </contour>
    <contour>
      <point x="615" y="1288" type="curve" smooth="yes"/>
      <point x="615" y="1220"/>
      <point x="678" y="1163"/>
      <point x="760" y="1163" type="curve" smooth="yes"/>
      <point x="843" y="1163"/>
      <point x="906" y="1219"/>
      <point x="906" y="1289" type="curve" smooth="yes"/>
      <point x="906" y="1361"/>
      <point x="843" y="1417"/>
      <point x="760" y="1417" type="curve" smooth="yes"/>
      <point x="678" y="1417"/>
      <point x="615" y="1361"/>
    </contour>
  </outline>
</glyph>
<glyph name="igrave" format="2">
  <advance width="564"/>
  <unicode hex="00EC"/>
  <note>
uni00EC
</note>
  <outline>
    <contour>
      <point x="446" y="1041" type="line"/>
      <point x="117" y="1041" type="line"/>
      <point x="117" y="0" type="line"/>
      <point x="446" y="0" type="line"/>
    </contour>
    <contour>
      <point x="248" y="1460" type="line"/>
      <point x="-97" y="1460" type="line"/>
      <point x="176" y="1158" type="line"/>
      <point x="439" y="1158" type="line"/>
    </contour>
  </outline>
</glyph>
<glyph name="idieresis" format="2">
  <advance width="562"/>
  <unicode hex="00EF"/>
  <note>
uni00EF
</note>
  <outline>
    <contour>
      <point x="445" y="1041" type="line"/>
      <point x="118" y="1041" type="line"/>
      <point x="118" y="0" type="line"/>
      <point x="445" y="0" type="line"/>
    </contour>
    <contour>
      <point x="-114" y="1296" type="curve" smooth="yes"/>
      <point x="-114" y="1223"/>
      <point x="-51" y="1167"/>
      <point x="31" y="1167" type="curve" smooth="yes"/>
      <point x="114" y="1167"/>
      <point x="176" y="1223"/>
      <point x="176" y="1295" type="curve" smooth="yes"/>
      <point x="176" y="1365"/>
      <point x="114" y="1423"/>
      <point x="31" y="1423" type="curve" smooth="yes"/>
      <point x="-51" y="1423"/>
      <point x="-114" y="1364"/>
    </contour>
    <contour>
      <point x="387" y="1296" type="curve" smooth="yes"/>
      <point x="387" y="1223"/>
      <point x="449" y="1167"/>
      <point x="532" y="1167" type="curve" smooth="yes"/>
      <point x="614" y="1167"/>
      <point x="677" y="1223"/>
      <point x="677" y="1295" type="curve" smooth="yes"/>
      <point x="677" y="1365"/>
      <point x="614" y="1423"/>
      <point x="532" y="1423" type="curve" smooth="yes"/>
      <point x="449" y="1423"/>
      <point x="387" y="1364"/>
    </contour>
  </outline>
</glyph>
<glyph name="eth" format="2">
  <advance width="1122"/>
  <unicode hex="00F0"/>
  <note>
uni00F0
</note>
  <outline>
    <contour>
      <point x="952" y="1309" type="line"/>
      <point x="877" y="1421" type="line"/>
      <point x="722" y="1327" type="line"/>
      <point x="606" y="1408"/>
      <point x="472" y="1464"/>
      <point x="320" y="1494" type="curve"/>
      <point x="217" y="1260" type="line"/>
      <point x="304" y="1236"/>
      <point x="382" y="1203"/>
      <point x="451" y="1161" type="curve"/>
      <point x="320" y="1079" type="line"/>
      <point x="397" y="967" type="line"/>
      <point x="569" y="1073" type="line"/>
      <point x="638" y="1008"/>
      <point x="688" y="931"/>
      <point x="717" y="840" type="curve"/>
      <point x="652" y="881"/>
      <point x="580" y="901"/>
      <point x="498" y="901" type="curve" smooth="yes"/>
      <point x="222" y="901"/>
      <point x="62" y="723"/>
      <point x="62" y="426" type="curve" smooth="yes"/>
      <point x="62" y="160"/>
      <point x="267" y="-45"/>
      <point x="560" y="-45" type="curve" smooth="yes"/>
      <point x="885" y="-45"/>
      <point x="1082" y="223"/>
      <point x="1082" y="546" type="curve" smooth="yes"/>
      <point x="1082" y="600" type="line" smooth="yes"/>
      <point x="1082" y="856"/>
      <point x="998" y="1068"/>
      <point x="829" y="1234" type="curve"/>
    </contour>
    <contour>
      <point x="564" y="205" type="curve" smooth="yes"/>
      <point x="455" y="205"/>
      <point x="388" y="294"/>
      <point x="388" y="426" type="curve" smooth="yes"/>
      <point x="388" y="573"/>
      <point x="442" y="667"/>
      <point x="569" y="667" type="curve" smooth="yes"/>
      <point x="651" y="667"/>
      <point x="713" y="646"/>
      <point x="756" y="604" type="curve"/>
      <point x="756" y="509" type="line" smooth="yes"/>
      <point x="756" y="317"/>
      <point x="684" y="205"/>
    </contour>
  </outline>
</glyph>
<glyph name="ntilde" format="2">
  <advance width="1114"/>
  <unicode hex="00F1"/>
  <note>
uni00F1
</note>
  <outline>
    <contour>
      <point x="85" y="1041" type="line"/>
      <point x="85" y="0" type="line"/>
      <point x="410" y="0" type="line"/>
      <point x="410" y="737" type="line"/>
      <point x="442" y="787"/>
      <point x="489" y="811"/>
      <point x="552" y="811" type="curve" smooth="yes"/>
      <point x="663" y="811"/>
      <point x="698" y="763"/>
      <point x="698" y="658" type="curve" smooth="yes"/>
      <point x="698" y="0" type="line"/>
      <point x="1025" y="0" type="line"/>
      <point x="1025" y="671" type="line" smooth="yes"/>
      <point x="1018" y="933"/>
      <point x="915" y="1062"/>
      <point x="698" y="1062" type="curve" smooth="yes"/>
      <point x="570" y="1062"/>
      <point x="471" y="1014"/>
      <point x="401" y="920" type="curve"/>
      <point x="389" y="1041" type="line"/>
    </contour>
    <contour>
      <point x="750" y="1483" type="line"/>
      <point x="750" y="1422"/>
      <point x="716" y="1395"/>
      <point x="673" y="1395" type="curve" smooth="yes"/>
      <point x="570" y="1395"/>
      <point x="509" y="1475"/>
      <point x="405" y="1475" type="curve" smooth="yes"/>
      <point x="282" y="1475"/>
      <point x="182" y="1353"/>
      <point x="182" y="1212" type="curve"/>
      <point x="363" y="1203" type="line"/>
      <point x="363" y="1261"/>
      <point x="398" y="1288"/>
      <point x="436" y="1288" type="curve" smooth="yes"/>
      <point x="469" y="1288"/>
      <point x="512" y="1276"/>
      <point x="564" y="1250" type="curve" smooth="yes"/>
      <point x="616" y="1223"/>
      <point x="663" y="1210"/>
      <point x="705" y="1210" type="curve" smooth="yes"/>
      <point x="831" y="1210"/>
      <point x="928" y="1324"/>
      <point x="928" y="1471" type="curve"/>
    </contour>
  </outline>
</glyph>
<glyph name="oacute" format="2">
  <advance width="1109"/>
  <unicode hex="00F3"/>
  <note>
uni00F3
</note>
  <outline>
    <contour>
      <point x="50" y="449" type="line"/>
      <point x="66" y="147"/>
      <point x="257" y="-45"/>
      <point x="555" y="-45" type="curve" smooth="yes"/>
      <point x="861" y="-45"/>
      <point x="1057" y="160"/>
      <point x="1057" y="484" type="curve" smooth="yes"/>
      <point x="1057" y="496" type="line" smooth="yes"/>
      <point x="1057" y="829"/>
      <point x="865" y="1034"/>
      <point x="553" y="1034" type="curve" smooth="yes"/>
      <point x="232" y="1034"/>
      <point x="50" y="816"/>
      <point x="50" y="505" type="curve" smooth="yes"/>
    </contour>
    <contour>
      <point x="377" y="543" type="line"/>
      <point x="386" y="704"/>
      <point x="444" y="784"/>
      <point x="553" y="784" type="curve" smooth="yes"/>
      <point x="673" y="784"/>
      <point x="732" y="691"/>
      <point x="732" y="505" type="curve" smooth="yes"/>
      <point x="732" y="473" type="line" smooth="yes"/>
      <point x="730" y="295"/>
      <point x="671" y="205"/>
      <point x="555" y="205" type="curve" smooth="yes"/>
      <point x="434" y="205"/>
      <point x="375" y="293"/>
      <point x="375" y="484" type="curve" smooth="yes"/>
    </contour>
    <contour>
      <point x="407" y="1152" type="line"/>
      <point x="672" y="1152" type="line"/>
      <point x="938" y="1453" type="line"/>
      <point x="598" y="1453" type="line"/>
    </contour>
  </outline>
</glyph>
<glyph name="otilde" format="2">
  <advance width="1109"/>
  <unicode hex="00F5"/>
  <note>
uni00F5
</note>
  <outline>
    <contour>
      <point x="50" y="449" type="line"/>
      <point x="66" y="147"/>
      <point x="257" y="-45"/>
      <point x="555" y="-45" type="curve" smooth="yes"/>
      <point x="861" y="-45"/>
      <point x="1057" y="160"/>
      <point x="1057" y="484" type="curve" smooth="yes"/>
      <point x="1057" y="496" type="line" smooth="yes"/>
      <point x="1057" y="829"/>
      <point x="865" y="1034"/>
      <point x="553" y="1034" type="curve" smooth="yes"/>
      <point x="232" y="1034"/>
      <point x="50" y="816"/>
      <point x="50" y="505" type="curve" smooth="yes"/>
    </contour>
    <contour>
      <point x="377" y="543" type="line"/>
      <point x="386" y="704"/>
      <point x="444" y="784"/>
      <point x="553" y="784" type="curve" smooth="yes"/>
      <point x="673" y="784"/>
      <point x="732" y="691"/>
      <point x="732" y="505" type="curve" smooth="yes"/>
      <point x="732" y="473" type="line" smooth="yes"/>
      <point x="730" y="295"/>
      <point x="671" y="205"/>
      <point x="555" y="205" type="curve" smooth="yes"/>
      <point x="434" y="205"/>
      <point x="375" y="293"/>
      <point x="375" y="484" type="curve" smooth="yes"/>
    </contour>
    <contour>
      <point x="749" y="1458" type="line"/>
      <point x="749" y="1397"/>
      <point x="714" y="1370"/>
      <point x="672" y="1370" type="curve" smooth="yes"/>
      <point x="571" y="1370"/>
      <point x="509" y="1449"/>
      <point x="403" y="1449" type="curve" smooth="yes"/>
      <point x="278" y="1449"/>
      <point x="183" y="1329"/>
      <point x="183" y="1187" type="curve"/>
      <point x="364" y="1178" type="line"/>
      <point x="364" y="1235"/>
      <point x="396" y="1264"/>
      <point x="437" y="1264" type="curve" smooth="yes"/>
      <point x="467" y="1264"/>
      <point x="509" y="1251"/>
      <point x="562" y="1223" type="curve" smooth="yes"/>
      <point x="615" y="1196"/>
      <point x="662" y="1183"/>
      <point x="704" y="1183" type="curve" smooth="yes"/>
      <point x="830" y="1183"/>
      <point x="927" y="1299"/>
      <point x="927" y="1447" type="curve"/>
    </contour>
  </outline>
</glyph>
<glyph name="divide" format="2">
  <advance width="1083"/>
  <unicode hex="00F7"/>
  <outline>
    <contour>
      <point x="981" y="817" type="line"/>
      <point x="102" y="817" type="line"/>
      <point x="102" y="563" type="line"/>
      <point x="981" y="563" type="line"/>
    </contour>
    <contour>
      <point x="553" y="948" type="curve" smooth="yes"/>
      <point x="637" y="948"/>
      <point x="705" y="1016"/>
      <point x="705" y="1100" type="curve" smooth="yes"/>
      <point x="705" y="1184"/>
      <point x="637" y="1251"/>
      <point x="553" y="1251" type="curve" smooth="yes"/>
      <point x="469" y="1251"/>
      <point x="401" y="1184"/>
      <point x="401" y="1100" type="curve" smooth="yes"/>
      <point x="401" y="1016"/>
      <point x="469" y="948"/>
    </contour>
    <contour>
      <point x="553" y="129" type="curve" smooth="yes"/>
      <point x="637" y="129"/>
      <point x="705" y="197"/>
      <point x="705" y="281" type="curve" smooth="yes"/>
      <point x="705" y="365"/>
      <point x="637" y="432"/>
      <point x="553" y="432" type="curve" smooth="yes"/>
      <point x="469" y="432"/>
      <point x="401" y="365"/>
      <point x="401" y="281" type="curve" smooth="yes"/>
      <point x="401" y="197"/>
      <point x="469" y="129"/>
    </contour>
  </outline>
</glyph>
<glyph name="ucircumflex" format="2">
  <advance width="1113"/>
  <unicode hex="00FB"/>
  <note>
uni00FB
</note>
  <outline>
    <contour>
      <point x="721" y="-25" type="line"/>
      <point x="1026" y="-25" type="line"/>
      <point x="1026" y="1016" type="line"/>
      <point x="699" y="1016" type="line"/>
      <point x="699" y="286" type="line"/>
      <point x="667" y="232"/>
      <point x="615" y="205"/>
      <point x="542" y="205" type="curve" smooth="yes"/>
      <point x="454" y="205"/>
      <point x="411" y="250"/>
      <point x="411" y="340" type="curve" smooth="yes"/>
      <point x="411" y="1016" type="line"/>
      <point x="86" y="1016" type="line"/>
      <point x="86" y="342" type="line" smooth="yes"/>
      <point x="86" y="90"/>
      <point x="205" y="-45"/>
      <point x="433" y="-45" type="curve" smooth="yes"/>
      <point x="551" y="-45"/>
      <point x="643" y="-1"/>
      <point x="710" y="88" type="curve"/>
    </contour>
    <contour>
      <point x="650" y="1453" type="line"/>
      <point x="463" y="1453" type="line"/>
      <point x="151" y="1187" type="line"/>
      <point x="151" y="1169" type="line"/>
      <point x="402" y="1169" type="line"/>
      <point x="555" y="1300" type="line"/>
      <point x="708" y="1169" type="line"/>
      <point x="965" y="1169" type="line"/>
      <point x="965" y="1183" type="line"/>
    </contour>
  </outline>
</glyph>
<glyph name="yacute" format="2">
  <advance width="1021"/>
  <unicode hex="00FD"/>
  <note>
uni00FD
</note>
  <outline>
    <contour>
      <point x="340" y="1016" type="line"/>
      <point x="-4" y="1016" type="line"/>
      <point x="357" y="-34" type="line"/>
      <point x="332" y="-103" type="line" smooth="yes"/>
      <point x="307" y="-172"/>
      <point x="265" y="-194"/>
      <point x="174" y="-194" type="curve" smooth="yes"/>
      <point x="134" y="-194" type="line"/>
      <point x="134" y="-426" type="line"/>
      <point x="181" y="-439"/>
      <point x="224" y="-447"/>
      <point x="267" y="-447" type="curve" smooth="yes"/>
      <point x="417" y="-447"/>
      <point x="525" y="-378"/>
      <point x="586" y="-243" type="curve" smooth="yes"/>
      <point x="604" y="-200" type="line"/>
      <point x="1028" y="1016" type="line"/>
      <point x="681" y="1016" type="line"/>
      <point x="508" y="428" type="line"/>
    </contour>
    <contour>
      <point x="359" y="1152" type="line"/>
      <point x="624" y="1152" type="line"/>
      <point x="893" y="1455" type="line"/>
      <point x="548" y="1455" type="line"/>
    </contour>
  </outline>
</glyph>
<glyph name="ydieresis" format="2">
  <advance width="1021"/>
  <unicode hex="00FF"/>
  <note>
uni00FF
</note>
  <outline>
    <contour>
      <point x="340" y="1007" type="line"/>
      <point x="-4" y="1007" type="line"/>
      <point x="357" y="-43" type="line"/>
      <point x="332" y="-112" type="line" smooth="yes"/>
      <point x="307" y="-183"/>
      <point x="265" y="-202"/>
      <point x="174" y="-202" type="curve" smooth="yes"/>
      <point x="134" y="-202" type="line"/>
      <point x="134" y="-434" type="line"/>
      <point x="181" y="-449"/>
      <point x="224" y="-455"/>
      <point x="267" y="-455" type="curve" smooth="yes"/>
      <point x="417" y="-455"/>
      <point x="525" y="-387"/>
      <point x="586" y="-252" type="curve" smooth="yes"/>
      <point x="604" y="-209" type="line"/>
      <point x="1028" y="1007" type="line"/>
      <point x="681" y="1007" type="line"/>
      <point x="508" y="419" type="line"/>
    </contour>
    <contour>
      <point x="111" y="1279" type="curve" smooth="yes"/>
      <point x="111" y="1208"/>
      <point x="174" y="1154"/>
      <point x="257" y="1154" type="curve" smooth="yes"/>
      <point x="338" y="1154"/>
      <point x="402" y="1208"/>
      <point x="402" y="1279" type="curve" smooth="yes"/>
      <point x="402" y="1352"/>
      <point x="338" y="1408"/>
      <point x="257" y="1408" type="curve" smooth="yes"/>
      <point x="174" y="1408"/>
      <point x="111" y="1352"/>
    </contour>
    <contour>
      <point x="611" y="1279" type="curve" smooth="yes"/>
      <point x="611" y="1208"/>
      <point x="674" y="1154"/>
      <point x="757" y="1154" type="curve" smooth="yes"/>
      <point x="839" y="1154"/>
      <point x="901" y="1208"/>
      <point x="901" y="1279" type="curve" smooth="yes"/>
      <point x="901" y="1352"/>
      <point x="839" y="1408"/>
      <point x="757" y="1408" type="curve" smooth="yes"/>
      <point x="674" y="1408"/>
      <point x="611" y="1352"/>
    </contour>
  </outline>
</glyph>
<glyph name="idotless" format="2">
  <advance width="562"/>
  <unicode hex="0131"/>
  <note>
uni0069
</note>
  <outline>
    <contour>
      <point x="444" y="1041" type="line"/>
      <point x="119" y="1041" type="line"/>
      <point x="119" y="0" type="line"/>
      <point x="444" y="0" type="line"/>
    </contour>
  </outline>
</glyph>
<glyph name="Lslash" format="2">
  <advance width="1116"/>
  <unicode hex="0141"/>
  <note>
uni0141
</note>
  <outline>
    <contour>
      <point x="493" y="1404" type="line"/>
      <point x="155" y="1404" type="line"/>
      <point x="155" y="787" type="line"/>
      <point x="24" y="752" type="line"/>
      <point x="24" y="579" type="line"/>
      <point x="155" y="615" type="line"/>
      <point x="155" y="0" type="line"/>
      <point x="1080" y="0" type="line"/>
      <point x="1080" y="260" type="line"/>
      <point x="493" y="260" type="line"/>
      <point x="493" y="710" type="line"/>
      <point x="680" y="759" type="line"/>
      <point x="680" y="933" type="line"/>
      <point x="493" y="881" type="line"/>
    </contour>
  </outline>
</glyph>
<glyph name="lslash" format="2">
  <advance width="635"/>
  <unicode hex="0142"/>
  <note>
uni0142
</note>
  <outline>
    <contour>
      <point x="476" y="1477" type="line"/>
      <point x="149" y="1477" type="line"/>
      <point x="149" y="789" type="line"/>
      <point x="25" y="752" type="line"/>
      <point x="25" y="579" type="line"/>
      <point x="149" y="617" type="line"/>
      <point x="149" y="0" type="line"/>
      <point x="476" y="0" type="line"/>
      <point x="476" y="716" type="line"/>
      <point x="603" y="757" type="line"/>
      <point x="603" y="933" type="line"/>
      <point x="476" y="890" type="line"/>
    </contour>
  </outline>
</glyph>
<glyph name="Scaron" format="2">
  <advance width="1234"/>
  <unicode hex="0160"/>
  <note>
uni0160
</note>
  <outline>
    <contour>
      <point x="830" y="347" type="curve" smooth="yes"/>
      <point x="830" y="260"/>
      <point x="758" y="209"/>
      <point x="647" y="209" type="curve" smooth="yes"/>
      <point x="473" y="209"/>
      <point x="402" y="277"/>
      <point x="402" y="430" type="curve"/>
      <point x="62" y="430" type="line"/>
      <point x="62" y="244"/>
      <point x="155" y="99"/>
      <point x="340" y="17" type="curve" smooth="yes"/>
      <point x="432" y="-24"/>
      <point x="535" y="-45"/>
      <point x="647" y="-45" type="curve" smooth="yes"/>
      <point x="971" y="-45"/>
      <point x="1167" y="103"/>
      <point x="1167" y="349" type="curve" smooth="yes"/>
      <point x="1167" y="503"/>
      <point x="1092" y="624"/>
      <point x="941" y="712" type="curve" smooth="yes"/>
      <point x="798" y="792"/>
      <point x="593" y="829"/>
      <point x="497" y="902" type="curve" smooth="yes"/>
      <point x="459" y="932"/>
      <point x="440" y="964"/>
      <point x="440" y="998" type="curve" smooth="yes"/>
      <point x="440" y="1082"/>
      <point x="513" y="1140"/>
      <point x="636" y="1140" type="curve" smooth="yes"/>
      <point x="756" y="1140"/>
      <point x="830" y="1076"/>
      <point x="830" y="961" type="curve"/>
      <point x="1167" y="961" type="line"/>
      <point x="1167" y="1212"/>
      <point x="957" y="1397"/>
      <point x="643" y="1397" type="curve" smooth="yes"/>
      <point x="328" y="1397"/>
      <point x="105" y="1241"/>
      <point x="105" y="1002" type="curve" smooth="yes"/>
      <point x="105" y="846"/>
      <point x="195" y="724"/>
      <point x="377" y="636" type="curve" smooth="yes"/>
      <point x="511" y="567"/>
      <point x="695" y="527"/>
      <point x="777" y="463" type="curve" smooth="yes"/>
      <point x="812" y="436"/>
      <point x="830" y="396"/>
    </contour>
    <contour>
      <point x="494" y="1752" type="line"/>
      <point x="215" y="1752" type="line"/>
      <point x="215" y="1744" type="line"/>
      <point x="533" y="1469" type="line"/>
      <point x="742" y="1469" type="line"/>
      <point x="1055" y="1741" type="line"/>
      <point x="1055" y="1752" type="line"/>
      <point x="778" y="1752" type="line"/>
      <point x="638" y="1623" type="line"/>
    </contour>
  </outline>
</glyph>
<glyph name="Zcaron" format="2">
  <advance width="1202"/>
  <unicode hex="017D"/>
  <note>
uni017D
</note>
  <outline>
    <contour>
      <point x="1150" y="1228" type="line"/>
      <point x="1150" y="1404" type="line"/>
      <point x="60" y="1404" type="line"/>
      <point x="60" y="1140" type="line"/>
      <point x="731" y="1140" type="line"/>
      <point x="65" y="178" type="line"/>
      <point x="65" y="0" type="line"/>
      <point x="1155" y="0" type="line"/>
      <point x="1155" y="260" type="line"/>
      <point x="486" y="260" type="line"/>
    </contour>
    <contour>
      <point x="473" y="1780" type="line"/>
      <point x="193" y="1780" type="line"/>
      <point x="193" y="1771" type="line"/>
      <point x="508" y="1496" type="line"/>
      <point x="716" y="1496" type="line"/>
      <point x="1032" y="1769" type="line"/>
      <point x="1032" y="1780" type="line"/>
      <point x="754" y="1780" type="line"/>
      <point x="612" y="1651" type="line"/>
    </contour>
  </outline>
</glyph>
<glyph name="hamza-ar" format="2">
  <advance width="1041"/>
  <unicode hex="0621"/>
  <anchor x="519" y="-181" name="bottom"/>
  <anchor x="536" y="1090" name="top"/>
  <outline>
    <contour>
      <point x="967" y="43" type="curve" smooth="yes"/>
      <point x="979" y="119"/>
      <point x="979" y="197"/>
      <point x="967" y="272" type="curve" smooth="yes"/>
      <point x="961" y="299"/>
      <point x="948" y="317"/>
      <point x="920" y="313" type="curve" smooth="yes"/>
      <point x="707" y="313" type="line" smooth="yes"/>
      <point x="606" y="313"/>
      <point x="553" y="344"/>
      <point x="559" y="416" type="curve" smooth="yes"/>
      <point x="559" y="481"/>
      <point x="612" y="516"/>
      <point x="702" y="512" type="curve" smooth="yes"/>
      <point x="864" y="516" type="line" smooth="yes"/>
      <point x="895" y="512"/>
      <point x="905" y="528"/>
      <point x="905" y="563" type="curve" smooth="yes"/>
      <point x="893" y="645"/>
      <point x="866" y="729"/>
      <point x="827" y="799" type="curve" smooth="yes"/>
      <point x="815" y="813"/>
      <point x="803" y="829"/>
      <point x="776" y="825" type="curve" smooth="yes"/>
      <point x="643" y="825" type="line" smooth="yes"/>
      <point x="389" y="825"/>
      <point x="233" y="639"/>
      <point x="233" y="420" type="curve" smooth="yes"/>
      <point x="233" y="377"/>
      <point x="238" y="342"/>
      <point x="240" y="317" type="curve"/>
      <point x="133" y="317" type="line" smooth="yes"/>
      <point x="106" y="317"/>
      <point x="100" y="301"/>
      <point x="94" y="276" type="curve" smooth="yes"/>
      <point x="78" y="199"/>
      <point x="78" y="121"/>
      <point x="94" y="43" type="curve" smooth="yes"/>
      <point x="100" y="23"/>
      <point x="108" y="0"/>
      <point x="133" y="0" type="curve" smooth="yes"/>
      <point x="926" y="0" type="line" smooth="yes"/>
      <point x="948" y="0"/>
      <point x="956" y="16"/>
    </contour>
  </outline>
</glyph>
<glyph name="sad-ar" format="2">
  <advance width="2371"/>
  <unicode hex="0635"/>
  <anchor x="1186" y="-200" name="bottom"/>
  <anchor x="664" y="1003" name="top"/>
  <outline>
    <contour>
      <point x="991" y="-188" type="line" smooth="yes"/>
      <point x="1157" y="-188"/>
      <point x="1247" y="-98"/>
      <point x="1247" y="68" type="curve" smooth="yes"/>
      <point x="1247" y="964" type="line" smooth="yes"/>
      <point x="1247" y="978"/>
      <point x="1237" y="982"/>
      <point x="1223" y="980" type="curve" smooth="yes"/>
      <point x="1135" y="966"/>
      <point x="1045" y="929"/>
      <point x="956" y="865" type="curve" smooth="yes"/>
      <point x="946" y="859"/>
      <point x="940" y="853"/>
      <point x="940" y="843" type="curve" smooth="yes"/>
      <point x="940" y="186" type="line" smooth="yes"/>
      <point x="940" y="143"/>
      <point x="916" y="119"/>
      <point x="873" y="119" type="curve" smooth="yes"/>
      <point x="662" y="119" type="line" smooth="yes"/>
      <point x="485" y="119"/>
      <point x="397" y="209"/>
      <point x="397" y="389" type="curve" smooth="yes"/>
      <point x="397" y="508"/>
      <point x="420" y="618"/>
      <point x="465" y="717" type="curve" smooth="yes"/>
      <point x="473" y="733"/>
      <point x="465" y="739"/>
      <point x="447" y="735" type="curve" smooth="yes"/>
      <point x="348" y="717"/>
      <point x="256" y="678"/>
      <point x="166" y="623" type="curve" smooth="yes"/>
      <point x="158" y="618"/>
      <point x="152" y="614"/>
      <point x="145" y="604" type="curve" smooth="yes"/>
      <point x="113" y="551"/>
      <point x="92" y="479"/>
      <point x="84" y="389" type="curve" smooth="yes"/>
      <point x="55" y="63"/>
      <point x="293" y="-188"/>
      <point x="662" y="-188" type="curve" smooth="yes"/>
    </contour>
    <component base="_sadkufihead" xOffset="1182" identifier="6B8FDC6E"/>
  </outline>
</glyph>
<glyph name="kashida-ar" format="2">
  <advance width="571"/>
  <unicode hex="0640"/>
  <anchor x="286" y="-204" name="bottom"/>
  <anchor x="285" y="748" name="top"/>
  <outline>
    <contour>
      <point x="-41" y="307" type="line"/>
      <point x="-41" y="0" type="line"/>
      <point x="612" y="0" type="line"/>
      <point x="612" y="307" type="line"/>
    </contour>
  </outline>
</glyph>
<glyph name="meem-ar" format="2">
  <advance width="1309"/>
  <unicode hex="0645"/>
  <anchor x="768" y="-182" name="bottom"/>
  <anchor x="501" y="1035" name="top"/>
  <outline>
    <component base="_roundhead" xOffset="352" identifier="8849FC78"/>
    <contour>
      <point x="82" y="154" type="curve" smooth="yes"/>
      <point x="82" y="-362" type="line" smooth="yes"/>
      <point x="82" y="-376"/>
      <point x="89" y="-382"/>
      <point x="102" y="-390" type="curve" smooth="yes"/>
      <point x="175" y="-438"/>
      <point x="261" y="-467"/>
      <point x="360" y="-477" type="curve" smooth="yes"/>
      <point x="377" y="-479"/>
      <point x="389" y="-475"/>
      <point x="389" y="-457" type="curve" smooth="yes"/>
      <point x="389" y="-20" type="line" smooth="yes"/>
      <point x="389" y="-8"/>
      <point x="397" y="0"/>
      <point x="410" y="0" type="curve" smooth="yes"/>
      <point x="676" y="0" type="line"/>
      <point x="676" y="307" type="line"/>
      <point x="236" y="307" type="line" smooth="yes"/>
      <point x="137" y="307"/>
      <point x="82" y="252"/>
    </contour>
  </outline>
</glyph>
<glyph name="one-ar" format="2">
  <advance width="467"/>
  <unicode hex="0661"/>
  <outline>
    <contour>
      <point x="80" y="0" type="line"/>
      <point x="155" y="0" type="line" smooth="yes"/>
      <point x="305" y="0"/>
      <point x="387" y="82"/>
      <point x="387" y="231" type="curve" smooth="yes"/>
      <point x="387" y="1483" type="line" smooth="yes"/>
      <point x="387" y="1495"/>
      <point x="379" y="1499"/>
      <point x="366" y="1503" type="curve" smooth="yes"/>
      <point x="287" y="1534"/>
      <point x="181" y="1534"/>
      <point x="101" y="1503" type="curve" smooth="yes"/>
      <point x="89" y="1499"/>
      <point x="80" y="1495"/>
      <point x="80" y="1483" type="curve" smooth="yes"/>
    </contour>
  </outline>
</glyph>
<glyph name="qafDotless-ar" format="2">
  <advance width="1469"/>
  <unicode hex="066F"/>
  <outline>
    <component base="_roundhead" xOffset="515"/>
    <contour>
      <point x="756" y="-240" type="curve" smooth="yes"/>
      <point x="574" y="-240"/>
      <point x="371" y="-123"/>
      <point x="363" y="197" type="curve" smooth="yes"/>
      <point x="363" y="209"/>
      <point x="355" y="221"/>
      <point x="343" y="217" type="curve" smooth="yes"/>
      <point x="259" y="195"/>
      <point x="177" y="160"/>
      <point x="101" y="113" type="curve" smooth="yes"/>
      <point x="89" y="104"/>
      <point x="80" y="96"/>
      <point x="80" y="84" type="curve" smooth="yes"/>
      <point x="97" y="-403"/>
      <point x="488" y="-547"/>
      <point x="756" y="-547" type="curve" smooth="yes"/>
      <point x="1082" y="-547"/>
      <point x="1389" y="-364"/>
      <point x="1389" y="41" type="curve"/>
      <point x="1082" y="41" type="line"/>
      <point x="1082" y="-200"/>
      <point x="883" y="-240"/>
    </contour>
  </outline>
</glyph>
<glyph name="gaf-ar" format="2">
  <advance width="1654"/>
  <unicode hex="06AF"/>
  <guideline x="1551" y="987" angle="90"/>
  <outline>
    <contour>
      <point x="810" y="1267" type="line"/>
      <point x="810" y="1098" type="line"/>
      <point x="1522" y="1597" type="line"/>
      <point x="1531" y="1648"/>
      <point x="1520" y="1698"/>
      <point x="1495" y="1743" type="curve"/>
    </contour>
    <component base="keheh-ar"/>
  </outline>
</glyph>
<glyph name="fullstop-ar" format="2">
  <advance width="960"/>
  <unicode hex="06D4"/>
  <outline>
    <contour>
      <point x="291" y="0" type="curve" smooth="yes"/>
      <point x="665" y="0" type="line" smooth="yes"/>
      <point x="761" y="0"/>
      <point x="841" y="76"/>
      <point x="841" y="172" type="curve" smooth="yes"/>
      <point x="841" y="268"/>
      <point x="761" y="348"/>
      <point x="665" y="348" type="curve" smooth="yes"/>
      <point x="291" y="348" type="line" smooth="yes"/>
      <point x="195" y="348"/>
      <point x="119" y="268"/>
      <point x="119" y="172" type="curve" smooth="yes"/>
      <point x="119" y="76"/>
      <point x="195" y="0"/>
    </contour>
  </outline>
</glyph>
<glyph name="emdash" format="2">
  <advance width="1763"/>
  <unicode hex="2014"/>
  <outline>
    <contour>
      <point x="1640" y="643" type="line"/>
      <point x="123" y="643" type="line"/>
      <point x="123" y="426" type="line"/>
      <point x="1640" y="426" type="line"/>
    </contour>
  </outline>
</glyph>
<glyph name="product" format="2">
  <advance width="1212"/>
  <unicode hex="220F"/>
  <note>
uni220F
</note>
  <outline>
    <contour>
      <point x="1090" y="1110" type="line"/>
      <point x="123" y="1110" type="line"/>
      <point x="123" y="-410" type="line"/>
      <point x="422" y="-410" type="line"/>
      <point x="422" y="889" type="line"/>
      <point x="791" y="889" type="line"/>
      <point x="791" y="-410" type="line"/>
      <point x="1090" y="-410" type="line"/>
    </contour>
  </outline>
</glyph>
<glyph name="summation" format="2">
  <advance width="1268"/>
  <unicode hex="2211"/>
  <note>
uni2211
</note>
  <outline>
    <contour>
      <point x="897" y="559" type="line"/>
      <point x="518" y="1065" type="line"/>
      <point x="1155" y="1065" type="line"/>
      <point x="1155" y="1294" type="line"/>
      <point x="102" y="1294" type="line"/>
      <point x="102" y="1163" type="line"/>
      <point x="586" y="543" type="line"/>
      <point x="102" y="-92" type="line"/>
      <point x="102" y="-225" type="line"/>
      <point x="1165" y="-225" type="line"/>
      <point x="1165" y="4" type="line"/>
      <point x="514" y="4" type="line"/>
      <point x="897" y="526" type="line"/>
    </contour>
  </outline>
</glyph>
<glyph name="infinity" format="2">
  <advance width="1950"/>
  <unicode hex="221E"/>
  <note>
uni221E
</note>
  <outline>
    <contour>
      <point x="1847" y="444" type="curve" smooth="yes"/>
      <point x="1847" y="750"/>
      <point x="1663" y="946"/>
      <point x="1384" y="946" type="curve" smooth="yes"/>
      <point x="1214" y="946"/>
      <point x="1071" y="860"/>
      <point x="975" y="696" type="curve"/>
      <point x="872" y="864"/>
      <point x="735" y="946"/>
      <point x="565" y="946" type="curve" smooth="yes"/>
      <point x="383" y="946"/>
      <point x="238" y="862"/>
      <point x="160" y="713" type="curve" smooth="yes"/>
      <point x="121" y="637"/>
      <point x="102" y="553"/>
      <point x="102" y="461" type="curve" smooth="yes"/>
      <point x="102" y="154"/>
      <point x="289" y="-41"/>
      <point x="567" y="-41" type="curve" smooth="yes"/>
      <point x="733" y="-41"/>
      <point x="872" y="47"/>
      <point x="975" y="221" type="curve"/>
      <point x="1069" y="53"/>
      <point x="1212" y="-41"/>
      <point x="1382" y="-41" type="curve" smooth="yes"/>
      <point x="1565" y="-41"/>
      <point x="1712" y="43"/>
      <point x="1790" y="193" type="curve" smooth="yes"/>
      <point x="1829" y="268"/>
      <point x="1847" y="352"/>
    </contour>
    <contour>
      <point x="1561" y="461" type="curve" smooth="yes"/>
      <point x="1561" y="291"/>
      <point x="1483" y="197"/>
      <point x="1362" y="197" type="curve" smooth="yes"/>
      <point x="1218" y="197"/>
      <point x="1127" y="383"/>
      <point x="1122" y="451" type="curve"/>
      <point x="1122" y="471" type="line"/>
      <point x="1126" y="525"/>
      <point x="1207" y="709"/>
      <point x="1364" y="709" type="curve" smooth="yes"/>
      <point x="1485" y="709"/>
      <point x="1561" y="606"/>
    </contour>
    <contour>
      <point x="389" y="444" type="curve" smooth="yes"/>
      <point x="389" y="614"/>
      <point x="467" y="709"/>
      <point x="586" y="709" type="curve" smooth="yes"/>
      <point x="732" y="709"/>
      <point x="822" y="538"/>
      <point x="827" y="471" type="curve"/>
      <point x="827" y="451" type="line"/>
      <point x="821" y="375"/>
      <point x="727" y="197"/>
      <point x="588" y="197" type="curve" smooth="yes"/>
      <point x="467" y="197"/>
      <point x="389" y="293"/>
    </contour>
  </outline>
</glyph>
<glyph name="notequal" format="2">
  <advance width="1020"/>
  <unicode hex="2260"/>
  <note>
uni003D
</note>
  <outline>
    <contour>
      <point x="918" y="1020" type="line"/>
      <point x="798" y="1020" type="line"/>
      <point x="878" y="1159" type="line"/>
      <point x="746" y="1238" type="line"/>
      <point x="619" y="1020" type="line"/>
      <point x="85" y="1020" type="line"/>
      <point x="85" y="791" type="line"/>
      <point x="487" y="791" type="line"/>
      <point x="395" y="633" type="line"/>
      <point x="85" y="633" type="line"/>
      <point x="85" y="403" type="line"/>
      <point x="261" y="403" type="line"/>
      <point x="158" y="225" type="line"/>
      <point x="295" y="151" type="line"/>
      <point x="441" y="403" type="line"/>
      <point x="918" y="403" type="line"/>
      <point x="918" y="633" type="line"/>
      <point x="574" y="633" type="line"/>
      <point x="665" y="791" type="line"/>
      <point x="918" y="791" type="line"/>
    </contour>
  </outline>
</glyph>
<glyph name="dottedCircle" format="2">
  <advance width="1427"/>
  <unicode hex="25CC"/>
  <outline>
    <contour>
      <point x="778" y="1155" type="curve" smooth="yes"/>
      <point x="778" y="1116"/>
      <point x="752" y="1092"/>
      <point x="713" y="1092" type="curve" smooth="yes"/>
      <point x="672" y="1092"/>
      <point x="649" y="1118"/>
      <point x="649" y="1159" type="curve" smooth="yes"/>
      <point x="649" y="1202"/>
      <point x="670" y="1223"/>
      <point x="713" y="1223" type="curve" smooth="yes"/>
      <point x="756" y="1223"/>
      <point x="778" y="1200"/>
    </contour>
    <contour>
      <point x="571" y="1110" type="curve" smooth="yes"/>
      <point x="571" y="1071"/>
      <point x="543" y="1051"/>
      <point x="500" y="1051" type="curve" smooth="yes"/>
      <point x="465" y="1051"/>
      <point x="442" y="1075"/>
      <point x="442" y="1114" type="curve" smooth="yes"/>
      <point x="442" y="1157"/>
      <point x="463" y="1180"/>
      <point x="504" y="1180" type="curve" smooth="yes"/>
      <point x="549" y="1180"/>
      <point x="571" y="1157"/>
    </contour>
    <contour>
      <point x="987" y="1110" type="curve" smooth="yes"/>
      <point x="987" y="1071"/>
      <point x="961" y="1051"/>
      <point x="920" y="1051" type="curve" smooth="yes"/>
      <point x="879" y="1051"/>
      <point x="856" y="1075"/>
      <point x="856" y="1114" type="curve" smooth="yes"/>
      <point x="856" y="1157"/>
      <point x="879" y="1180"/>
      <point x="924" y="1180" type="curve" smooth="yes"/>
      <point x="967" y="1180"/>
      <point x="987" y="1157"/>
    </contour>
    <contour>
      <point x="395" y="997" type="curve" smooth="yes"/>
      <point x="395" y="956"/>
      <point x="367" y="932"/>
      <point x="324" y="932" type="curve" smooth="yes"/>
      <point x="285" y="932"/>
      <point x="264" y="958"/>
      <point x="264" y="993" type="curve" smooth="yes"/>
      <point x="264" y="1040"/>
      <point x="285" y="1063"/>
      <point x="328" y="1063" type="curve" smooth="yes"/>
      <point x="369" y="1063"/>
      <point x="395" y="1038"/>
    </contour>
    <contour>
      <point x="1163" y="993" type="curve" smooth="yes"/>
      <point x="1163" y="954"/>
      <point x="1137" y="932"/>
      <point x="1098" y="932" type="curve" smooth="yes"/>
      <point x="1057" y="932"/>
      <point x="1036" y="956"/>
      <point x="1036" y="997" type="curve" smooth="yes"/>
      <point x="1036" y="1038"/>
      <point x="1059" y="1063"/>
      <point x="1102" y="1063" type="curve" smooth="yes"/>
      <point x="1141" y="1063"/>
      <point x="1163" y="1036"/>
    </contour>
    <contour>
      <point x="274" y="821" type="curve" smooth="yes"/>
      <point x="274" y="776"/>
      <point x="252" y="754"/>
      <point x="209" y="754" type="curve" smooth="yes"/>
      <point x="168" y="754"/>
      <point x="145" y="780"/>
      <point x="145" y="821" type="curve" smooth="yes"/>
      <point x="145" y="862"/>
      <point x="168" y="883"/>
      <point x="211" y="883" type="curve" smooth="yes"/>
      <point x="250" y="883"/>
      <point x="274" y="860"/>
    </contour>
    <contour>
      <point x="1282" y="817" type="curve" smooth="yes"/>
      <point x="1282" y="776"/>
      <point x="1255" y="754"/>
      <point x="1212" y="754" type="curve" smooth="yes"/>
      <point x="1174" y="754"/>
      <point x="1153" y="780"/>
      <point x="1153" y="821" type="curve" smooth="yes"/>
      <point x="1153" y="862"/>
      <point x="1176" y="883"/>
      <point x="1219" y="883" type="curve" smooth="yes"/>
      <point x="1260" y="883"/>
      <point x="1282" y="858"/>
    </contour>
    <contour>
      <point x="233" y="612" type="curve" smooth="yes"/>
      <point x="233" y="571"/>
      <point x="207" y="547"/>
      <point x="166" y="547" type="curve" smooth="yes"/>
      <point x="125" y="547"/>
      <point x="102" y="571"/>
      <point x="102" y="612" type="curve" smooth="yes"/>
      <point x="102" y="653"/>
      <point x="127" y="676"/>
      <point x="170" y="676" type="curve" smooth="yes"/>
      <point x="209" y="676"/>
      <point x="233" y="653"/>
    </contour>
    <contour>
      <point x="1325" y="612" type="curve" smooth="yes"/>
      <point x="1325" y="569"/>
      <point x="1300" y="547"/>
      <point x="1260" y="547" type="curve" smooth="yes"/>
      <point x="1219" y="547"/>
      <point x="1196" y="571"/>
      <point x="1196" y="612" type="curve" smooth="yes"/>
      <point x="1196" y="653"/>
      <point x="1221" y="676"/>
      <point x="1264" y="676" type="curve" smooth="yes"/>
      <point x="1303" y="676"/>
      <point x="1325" y="653"/>
    </contour>
    <contour>
      <point x="274" y="403" type="curve" smooth="yes"/>
      <point x="274" y="362"/>
      <point x="248" y="340"/>
      <point x="207" y="340" type="curve" smooth="yes"/>
      <point x="166" y="340"/>
      <point x="145" y="365"/>
      <point x="145" y="403" type="curve" smooth="yes"/>
      <point x="145" y="444"/>
      <point x="168" y="469"/>
      <point x="211" y="469" type="curve" smooth="yes"/>
      <point x="250" y="469"/>
      <point x="274" y="444"/>
    </contour>
    <contour>
      <point x="1282" y="399" type="curve" smooth="yes"/>
      <point x="1282" y="360"/>
      <point x="1253" y="340"/>
      <point x="1212" y="340" type="curve" smooth="yes"/>
      <point x="1174" y="340"/>
      <point x="1153" y="365"/>
      <point x="1153" y="403" type="curve" smooth="yes"/>
      <point x="1153" y="444"/>
      <point x="1176" y="469"/>
      <point x="1217" y="469" type="curve" smooth="yes"/>
      <point x="1260" y="469"/>
      <point x="1282" y="442"/>
    </contour>
    <contour>
      <point x="395" y="223" type="curve" smooth="yes"/>
      <point x="395" y="184"/>
      <point x="369" y="162"/>
      <point x="328" y="162" type="curve" smooth="yes"/>
      <point x="287" y="162"/>
      <point x="264" y="184"/>
      <point x="264" y="223" type="curve" smooth="yes"/>
      <point x="264" y="266"/>
      <point x="287" y="291"/>
      <point x="328" y="291" type="curve" smooth="yes"/>
      <point x="369" y="291"/>
      <point x="395" y="266"/>
    </contour>
    <contour>
      <point x="1163" y="219" type="curve" smooth="yes"/>
      <point x="1163" y="184"/>
      <point x="1137" y="162"/>
      <point x="1102" y="162" type="curve" smooth="yes"/>
      <point x="1059" y="162"/>
      <point x="1036" y="182"/>
      <point x="1036" y="223" type="curve" smooth="yes"/>
      <point x="1036" y="268"/>
      <point x="1059" y="291"/>
      <point x="1102" y="291" type="curve" smooth="yes"/>
      <point x="1141" y="291"/>
      <point x="1163" y="266"/>
    </contour>
    <contour>
      <point x="571" y="106" type="curve" smooth="yes"/>
      <point x="571" y="68"/>
      <point x="545" y="45"/>
      <point x="504" y="45" type="curve" smooth="yes"/>
      <point x="465" y="45"/>
      <point x="442" y="68"/>
      <point x="442" y="106" type="curve" smooth="yes"/>
      <point x="442" y="150"/>
      <point x="463" y="172"/>
      <point x="504" y="172" type="curve" smooth="yes"/>
      <point x="549" y="172"/>
      <point x="571" y="150"/>
    </contour>
    <contour>
      <point x="987" y="102" type="curve" smooth="yes"/>
      <point x="987" y="68"/>
      <point x="963" y="45"/>
      <point x="924" y="45" type="curve" smooth="yes"/>
      <point x="881" y="45"/>
      <point x="856" y="68"/>
      <point x="856" y="106" type="curve" smooth="yes"/>
      <point x="856" y="150"/>
      <point x="879" y="172"/>
      <point x="924" y="172" type="curve" smooth="yes"/>
      <point x="967" y="172"/>
      <point x="987" y="150"/>
    </contour>
    <contour>
      <point x="778" y="61" type="curve" smooth="yes"/>
      <point x="778" y="23"/>
      <point x="752" y="0"/>
      <point x="713" y="0" type="curve" smooth="yes"/>
      <point x="672" y="0"/>
      <point x="649" y="25"/>
      <point x="649" y="66" type="curve" smooth="yes"/>
      <point x="649" y="106"/>
      <point x="670" y="131"/>
      <point x="709" y="131" type="curve" smooth="yes"/>
      <point x="756" y="131"/>
      <point x="778" y="109"/>
    </contour>
  </outline>
</glyph>
<glyph name="fi" format="2">
  <advance width="1252"/>
  <unicode hex="FB01"/>
  <note>
uniFB01
</note>
  <outline>
    <contour>
      <point x="492" y="0" type="line"/>
      <point x="492" y="815" type="line"/>
      <point x="697" y="815" type="line"/>
      <point x="697" y="1041" type="line"/>
      <point x="492" y="1041" type="line"/>
      <point x="492" y="1062" type="line" smooth="yes"/>
      <point x="492" y="1174"/>
      <point x="554" y="1230"/>
      <point x="677" y="1230" type="curve" smooth="yes"/>
      <point x="755" y="1230"/>
      <point x="830" y="1220"/>
      <point x="900" y="1201" type="curve" smooth="yes"/>
      <point x="952" y="1187" type="line"/>
      <point x="997" y="1444" type="line"/>
      <point x="866" y="1482"/>
      <point x="753" y="1500"/>
      <point x="657" y="1500" type="curve" smooth="yes"/>
      <point x="367" y="1500"/>
      <point x="171" y="1370"/>
      <point x="165" y="1077" type="curve" smooth="yes"/>
      <point x="165" y="1041" type="line"/>
      <point x="15" y="1041" type="line"/>
      <point x="15" y="815" type="line"/>
      <point x="165" y="815" type="line"/>
      <point x="165" y="0" type="line"/>
    </contour>
    <contour>
      <point x="1145" y="1041" type="line"/>
      <point x="819" y="1041" type="line"/>
      <point x="819" y="0" type="line"/>
      <point x="1145" y="0" type="line"/>
    </contour>
  </outline>
</glyph>
<glyph name="fl" format="2">
  <advance width="1249"/>
  <unicode hex="FB02"/>
  <note>
uniFB02
</note>
  <outline>
    <contour>
      <point x="816" y="0" type="line"/>
      <point x="1142" y="0" type="line"/>
      <point x="1142" y="1477" type="line"/>
      <point x="904" y="1493"/>
      <point x="732" y="1500"/>
      <point x="627" y="1500" type="curve" smooth="yes"/>
      <point x="330" y="1500"/>
      <point x="166" y="1361"/>
      <point x="162" y="1109" type="curve" smooth="yes"/>
      <point x="162" y="1041" type="line"/>
      <point x="12" y="1041" type="line"/>
      <point x="12" y="815" type="line"/>
      <point x="162" y="815" type="line"/>
      <point x="162" y="0" type="line"/>
      <point x="489" y="0" type="line"/>
      <point x="489" y="815" type="line"/>
      <point x="691" y="815" type="line"/>
      <point x="691" y="1041" type="line"/>
      <point x="489" y="1041" type="line"/>
      <point x="489" y="1101" type="line" smooth="yes"/>
      <point x="489" y="1199"/>
      <point x="552" y="1249"/>
      <point x="678" y="1249" type="curve" smooth="yes"/>
      <point x="716" y="1249"/>
      <point x="762" y="1246"/>
      <point x="816" y="1241" type="curve"/>
    </contour>
  </outline>
</glyph>
<glyph name=".notdef" format="2">
  <advance width="901"/>
  <note>
.notdef
</note>
  <outline>
    <contour>
      <point x="829" y="1540" type="line"/>
      <point x="72" y="1540" type="line"/>
      <point x="72" y="0" type="line"/>
      <point x="829" y="0" type="line"/>
    </contour>
    <contour>
      <point x="488" y="770" type="line"/>
      <point x="754" y="1393" type="line"/>
      <point x="754" y="145" type="line"/>
    </contour>
    <contour>
      <point x="407" y="770" type="line"/>
      <point x="149" y="159" type="line"/>
      <point x="149" y="1378" type="line"/>
    </contour>
    <contour>
      <point x="449" y="673" type="line"/>
      <point x="704" y="77" type="line"/>
      <point x="195" y="77" type="line"/>
    </contour>
    <contour>
      <point x="195" y="1464" type="line"/>
      <point x="704" y="1464" type="line"/>
      <point x="449" y="865" type="line"/>
    </contour>
  </outline>
</glyph>
<glyph name="_roundhead" format="2">
  <advance width="874"/>
  <outline>
    <contour>
      <point x="621" y="922" type="line" smooth="yes"/>
      <point x="113" y="922"/>
      <point x="0" y="838"/>
      <point x="0" y="256" type="curve" smooth="yes"/>
      <point x="0" y="90"/>
      <point x="90" y="0"/>
      <point x="256" y="0" type="curve" smooth="yes"/>
      <point x="854" y="0" type="line" smooth="yes"/>
      <point x="866" y="0"/>
      <point x="874" y="8"/>
      <point x="874" y="20" type="curve" smooth="yes"/>
      <point x="874" y="817" type="line" smooth="yes"/>
      <point x="874" y="885"/>
      <point x="838" y="922"/>
      <point x="770" y="922" type="curve" smooth="yes"/>
    </contour>
    <contour>
      <point x="506" y="608" type="curve" smooth="yes"/>
      <point x="543" y="608" type="line" smooth="yes"/>
      <point x="559" y="608"/>
      <point x="567" y="600"/>
      <point x="567" y="584" type="curve" smooth="yes"/>
      <point x="567" y="332" type="line" smooth="yes"/>
      <point x="567" y="316"/>
      <point x="558" y="307"/>
      <point x="542" y="307" type="curve" smooth="yes"/>
      <point x="352" y="307" type="line" smooth="yes"/>
      <point x="317" y="307"/>
      <point x="301" y="315"/>
      <point x="301" y="379" type="curve" smooth="yes"/>
      <point x="301" y="569"/>
      <point x="338" y="608"/>
    </contour>
  </outline>
</glyph>
<glyph name="_smallhamza" format="2">
  <advance width="0"/>
  <outline>
    <contour>
      <point x="307" y="-146" type="curve" smooth="yes"/>
      <point x="314" y="-109"/>
      <point x="315" y="-71"/>
      <point x="307" y="-31" type="curve" smooth="yes"/>
      <point x="305" y="-20"/>
      <point x="299" y="-11"/>
      <point x="285" y="-10" type="curve" smooth="yes"/>
      <point x="176" y="-11" type="line" smooth="yes"/>
      <point x="127" y="-11"/>
      <point x="101" y="6"/>
      <point x="103" y="39" type="curve" smooth="yes"/>
      <point x="102" y="72"/>
      <point x="128" y="90"/>
      <point x="175" y="89" type="curve" smooth="yes"/>
      <point x="257" y="90" type="line" smooth="yes"/>
      <point x="272" y="90"/>
      <point x="277" y="96"/>
      <point x="276" y="113" type="curve" smooth="yes"/>
      <point x="270" y="156"/>
      <point x="258" y="197"/>
      <point x="238" y="231" type="curve" smooth="yes"/>
      <point x="231" y="242"/>
      <point x="225" y="248"/>
      <point x="212" y="247" type="curve" smooth="yes"/>
      <point x="145" y="247" type="line" smooth="yes"/>
      <point x="15" y="247"/>
      <point x="-62" y="152"/>
      <point x="-63" y="41" type="curve" smooth="yes"/>
      <point x="-62" y="19"/>
      <point x="-60" y="2"/>
      <point x="-57" y="-11" type="curve"/>
      <point x="-111" y="-11" type="line" smooth="yes"/>
      <point x="-125" y="-11"/>
      <point x="-130" y="-18"/>
      <point x="-131" y="-30" type="curve" smooth="yes"/>
      <point x="-138" y="-70"/>
      <point x="-140" y="-108"/>
      <point x="-130" y="-148" type="curve" smooth="yes"/>
      <point x="-129" y="-159"/>
      <point x="-124" y="-167"/>
      <point x="-111" y="-168" type="curve" smooth="yes"/>
      <point x="287" y="-168" type="line" smooth="yes"/>
      <point x="299" y="-168"/>
      <point x="304" y="-161"/>
    </contour>
  </outline>
</glyph>
<glyph name="alefHamzaabove-ar.fina" format="2">
  <advance width="471"/>
  <anchor x="224" y="-120" name="bottom"/>
  <anchor x="167" y="1846" name="top"/>
  <outline>
    <contour>
      <point x="82" y="31" type="line" smooth="yes"/>
      <point x="82" y="12"/>
      <point x="94" y="0"/>
      <point x="113" y="0" type="curve" smooth="yes"/>
      <point x="537" y="0" type="line"/>
      <point x="537" y="307" type="line"/>
      <point x="420" y="307" type="line" smooth="yes"/>
      <point x="401" y="307"/>
      <point x="389" y="319"/>
      <point x="389" y="338" type="curve" smooth="yes"/>
      <point x="389" y="1266" type="line" smooth="yes"/>
      <point x="389" y="1282"/>
      <point x="377" y="1288"/>
      <point x="362" y="1284" type="curve" smooth="yes"/>
      <point x="270" y="1255"/>
      <point x="182" y="1219"/>
      <point x="98" y="1174" type="curve" smooth="yes"/>
      <point x="86" y="1167"/>
      <point x="82" y="1159"/>
      <point x="82" y="1147" type="curve" smooth="yes"/>
    </contour>
    <component base="_smallhamza" xOffset="165" yOffset="1552" identifier="336454C6"/>
  </outline>
</glyph>
<glyph name="behDotless-ar.fina" format="2">
  <advance width="1462"/>
  <outline>
    <contour>
      <point x="975" y="307" type="line"/>
      <point x="975" y="0" type="line"/>
      <point x="1505" y="0" type="line"/>
      <point x="1505" y="307" type="line"/>
    </contour>
    <contour>
      <point x="983" y="0" type="line"/>
      <point x="1307" y="0"/>
      <point x="1401" y="106"/>
      <point x="1401" y="383" type="curve" smooth="yes"/>
      <point x="1401" y="922" type="line" smooth="yes"/>
      <point x="1401" y="936"/>
      <point x="1391" y="942"/>
      <point x="1376" y="938" type="curve" smooth="yes"/>
      <point x="1282" y="907"/>
      <point x="1192" y="870"/>
      <point x="1110" y="823" type="curve" smooth="yes"/>
      <point x="1100" y="817"/>
      <point x="1094" y="811"/>
      <point x="1094" y="801" type="curve" smooth="yes"/>
      <point x="1094" y="397" type="line" smooth="yes"/>
      <point x="1094" y="346"/>
      <point x="1051" y="307"/>
      <point x="999" y="307" type="curve" smooth="yes"/>
      <point x="461" y="307" type="line" smooth="yes"/>
      <point x="412" y="307"/>
      <point x="369" y="346"/>
      <point x="369" y="397" type="curve" smooth="yes"/>
      <point x="369" y="745" type="line" smooth="yes"/>
      <point x="369" y="760"/>
      <point x="358" y="766"/>
      <point x="344" y="762" type="curve" smooth="yes"/>
      <point x="256" y="731"/>
      <point x="166" y="694"/>
      <point x="78" y="647" type="curve" smooth="yes"/>
      <point x="68" y="641"/>
      <point x="61" y="635"/>
      <point x="61" y="625" type="curve" smooth="yes"/>
      <point x="61" y="383" type="line" smooth="yes"/>
      <point x="61" y="106"/>
      <point x="205" y="0"/>
      <point x="512" y="0" type="curve" smooth="yes"/>
    </contour>
  </outline>
</glyph>
<glyph name="dal-ar.fina" format="2">
  <advance width="1107"/>
  <anchor x="404" y="-159" name="bottom"/>
  <anchor x="486" y="1166" name="top"/>
  <outline>
    <component base="dal-ar"/>
    <contour>
      <point x="915" y="307" type="line"/>
      <point x="915" y="0" type="line"/>
      <point x="1147" y="0" type="line"/>
      <point x="1147" y="307" type="line"/>
    </contour>
  </outline>
</glyph>
<glyph name="fehDotless-ar.init" format="2">
  <advance width="1038"/>
  <outline>
    <component base="_roundhead" xOffset="82" identifier="976807ED"/>
    <contour>
      <point x="-41" y="307" type="line"/>
      <point x="-41" y="0" type="line"/>
      <point x="514" y="0" type="line"/>
      <point x="514" y="307" type="line"/>
    </contour>
  </outline>
</glyph>
<glyph name="gaf-ar.medi" format="2">
  <advance width="915"/>
  <outline>
    <component base="gaf-ar.init"/>
    <contour>
      <point x="754" y="307" type="line"/>
      <point x="754" y="0" type="line"/>
      <point x="967" y="0" type="line"/>
      <point x="967" y="307" type="line"/>
    </contour>
  </outline>
</glyph>
<glyph name="hah-ar.medi" format="2">
  <advance width="995"/>
  <anchor x="372" y="-317" name="bottom"/>
  <anchor x="436" y="1354" name="top"/>
  <outline>
    <contour>
      <point x="901" y="307" type="line"/>
      <point x="901" y="0" type="line"/>
      <point x="1036" y="0" type="line"/>
      <point x="1036" y="307" type="line"/>
    </contour>
    <component base="hah-ar.init"/>
  </outline>
</glyph>
<glyph name="heh-ar.init.ss01" format="2">
  <advance width="1182"/>
  <anchor x="398" y="-175" name="bottom"/>
  <anchor x="444" y="1489" name="top"/>
  <outline>
    <contour>
      <point x="-41" y="0" type="line"/>
      <point x="77" y="0" type="line" smooth="yes"/>
      <point x="185" y="0"/>
      <point x="349" y="16"/>
      <point x="434" y="106" type="curve"/>
      <point x="559" y="16"/>
      <point x="659" y="-63"/>
      <point x="793" y="-63" type="curve" smooth="yes"/>
      <point x="991" y="-63"/>
      <point x="1108" y="113"/>
      <point x="1108" y="307" type="curve" smooth="yes"/>
      <point x="1108" y="737"/>
      <point x="735" y="1139"/>
      <point x="389" y="1264" type="curve" smooth="yes"/>
      <point x="379" y="1268"/>
      <point x="377" y="1264"/>
      <point x="367" y="1249" type="curve"/>
      <point x="309" y="1180"/>
      <point x="281" y="1096"/>
      <point x="281" y="997" type="curve" smooth="yes"/>
      <point x="281" y="983"/>
      <point x="281" y="977"/>
      <point x="293" y="973" type="curve" smooth="yes"/>
      <point x="520" y="887"/>
      <point x="807" y="606"/>
      <point x="807" y="307" type="curve" smooth="yes"/>
      <point x="807" y="281"/>
      <point x="801" y="209"/>
      <point x="705" y="254" type="curve" smooth="yes"/>
      <point x="680" y="266"/>
      <point x="654" y="278"/>
      <point x="629" y="290" type="curve"/>
      <point x="699" y="352"/>
      <point x="743" y="443"/>
      <point x="743" y="545" type="curve" smooth="yes"/>
      <point x="743" y="733"/>
      <point x="590" y="887"/>
      <point x="401" y="887" type="curve" smooth="yes"/>
      <point x="213" y="887"/>
      <point x="59" y="733"/>
      <point x="59" y="545" type="curve" smooth="yes"/>
      <point x="59" y="452"/>
      <point x="96" y="369"/>
      <point x="156" y="307" type="curve"/>
      <point x="130" y="307"/>
      <point x="103" y="307"/>
      <point x="77" y="307" type="curve" smooth="yes"/>
      <point x="-41" y="307" type="line"/>
    </contour>
    <contour>
      <point x="401" y="436" type="curve" smooth="yes"/>
      <point x="342" y="436"/>
      <point x="293" y="485"/>
      <point x="293" y="545" type="curve" smooth="yes"/>
      <point x="293" y="604"/>
      <point x="342" y="653"/>
      <point x="401" y="653" type="curve" smooth="yes"/>
      <point x="461" y="653"/>
      <point x="510" y="604"/>
      <point x="510" y="545" type="curve" smooth="yes"/>
      <point x="510" y="485"/>
      <point x="461" y="436"/>
    </contour>
  </outline>
</glyph>
<glyph name="hehgoal-ar.fina" format="2">
  <advance width="1452"/>
  <outline>
    <contour>
      <point x="285" y="22" type="curve" smooth="yes"/>
      <point x="400" y="287"/>
      <point x="510" y="522"/>
      <point x="639" y="517" type="curve"/>
      <point x="813" y="517"/>
      <point x="722" y="0"/>
      <point x="1254" y="0" type="curve"/>
      <point x="1482" y="0" type="line"/>
      <point x="1482" y="301" type="line"/>
      <point x="1254" y="307" type="line"/>
      <point x="926" y="307"/>
      <point x="1010" y="824"/>
      <point x="633" y="824" type="curve" smooth="yes"/>
      <point x="452" y="824"/>
      <point x="261" y="624"/>
      <point x="104" y="273" type="curve" smooth="yes"/>
      <point x="98" y="260"/>
      <point x="99" y="250"/>
      <point x="103" y="238" type="curve" smooth="yes"/>
      <point x="137" y="137"/>
      <point x="179" y="96"/>
      <point x="250" y="22" type="curve" smooth="yes"/>
      <point x="265" y="6"/>
      <point x="277" y="4"/>
    </contour>
  </outline>
</glyph>
<glyph name="keheh-ar.fina" format="2">
  <advance width="1654"/>
  <outline>
    <component base="keheh-ar"/>
    <contour>
      <point x="1466" y="307" type="line"/>
      <point x="1466" y="0" type="line"/>
      <point x="1709" y="0" type="line"/>
      <point x="1709" y="307" type="line"/>
    </contour>
  </outline>
</glyph>
<glyph name="kurdv" format="2">
  <advance width="0"/>
  <outline>
    <contour>
      <point x="29" y="54" type="line"/>
      <point x="158" y="317" type="line" smooth="yes"/>
      <point x="182" y="367"/>
      <point x="167" y="407"/>
      <point x="117" y="431" type="curve" smooth="yes"/>
      <point x="86" y="446" type="line"/>
      <point x="-4" y="256" type="line"/>
      <point x="-109" y="441" type="line"/>
      <point x="-139" y="423" type="line" smooth="yes"/>
      <point x="-187" y="396"/>
      <point x="-199" y="355"/>
      <point x="-171" y="307" type="curve" smooth="yes"/>
      <point x="-26" y="54" type="line"/>
    </contour>
  </outline>
</glyph>
<glyph name="lam_alefHamzabelow-ar.fina" format="2">
  <advance width="975"/>
  <anchor x="323" y="-701" name="bottom"/>
  <anchor x="279" y="1413" name="top"/>
  <outline>
    <contour>
      <point x="831" y="307" type="line"/>
      <point x="831" y="0" type="line"/>
      <point x="1016" y="0" type="line"/>
      <point x="1016" y="307" type="line"/>
    </contour>
    <component base="_smallhamza" xOffset="242" yOffset="-420" identifier="2804DFAF"/>
    <component base="lam_alef-ar"/>
  </outline>
</glyph>
<glyph name="meem-ar.fina" format="2">
  <advance width="1294"/>
  <anchor x="737" y="-141" name="bottom"/>
  <anchor x="470" y="1051" name="top"/>
  <outline>
    <component base="meem-ar"/>
    <contour>
      <point x="1145" y="307" type="line"/>
      <point x="1145" y="0" type="line"/>
      <point x="1335" y="0" type="line"/>
      <point x="1335" y="307" type="line"/>
    </contour>
  </outline>
</glyph>
<glyph name="sad-ar.fina.ss01" format="2">
  <advance width="2370"/>
  <anchor x="1267" y="-191" name="bottom"/>
  <anchor x="690" y="985" name="top"/>
  <outline>
    <contour>
      <point x="1949" y="307" type="line"/>
      <point x="1949" y="0" type="line"/>
      <point x="2410" y="0" type="line"/>
      <point x="2410" y="307" type="line"/>
    </contour>
    <component base="sad-ar.ss01"/>
  </outline>
</glyph>
<glyph name="sad-ar.init.ss01" format="2">
  <advance width="1493"/>
  <anchor x="679" y="-180" name="bottom"/>
  <anchor x="688" y="1252" name="top"/>
  <outline>
    <component base="_sadhead" xOffset="299" identifier="FD9162FD"/>
    <contour>
      <point x="414" y="0" type="line"/>
      <point x="414" y="926" type="line" smooth="yes"/>
      <point x="414" y="940"/>
      <point x="403" y="944"/>
      <point x="389" y="942" type="curve" smooth="yes"/>
      <point x="301" y="928"/>
      <point x="211" y="891"/>
      <point x="123" y="827" type="curve" smooth="yes"/>
      <point x="113" y="821"/>
      <point x="106" y="815"/>
      <point x="106" y="805" type="curve" smooth="yes"/>
      <point x="106" y="307" type="line"/>
      <point x="-41" y="307" type="line"/>
      <point x="-41" y="0" type="line"/>
    </contour>
  </outline>
</glyph>
<glyph name="seen-ar.medi" format="2">
  <advance width="1364"/>
  <anchor x="488" y="-165" name="bottom"/>
  <anchor x="609" y="1125" name="top"/>
  <outline>
    <contour>
      <point x="-41" y="0" type="line"/>
      <point x="1405" y="0" type="line"/>
      <point x="1405" y="307" type="line"/>
      <point x="1261" y="307" type="line"/>
      <point x="1262" y="926" type="line" smooth="yes"/>
      <point x="1262" y="940"/>
      <point x="1251" y="946"/>
      <point x="1237" y="942" type="curve" smooth="yes"/>
      <point x="1147" y="915"/>
      <point x="1057" y="879"/>
      <point x="971" y="827" type="curve" smooth="yes"/>
      <point x="961" y="821"/>
      <point x="954" y="815"/>
      <point x="954" y="805" type="curve" smooth="yes"/>
      <point x="954" y="354" type="line" smooth="yes"/>
      <point x="954" y="315"/>
      <point x="940" y="307"/>
      <point x="897" y="307" type="curve" smooth="yes"/>
      <point x="844" y="307" type="line"/>
      <point x="844" y="836" type="line" smooth="yes"/>
      <point x="844" y="850"/>
      <point x="834" y="856"/>
      <point x="819" y="852" type="curve" smooth="yes"/>
      <point x="729" y="825"/>
      <point x="639" y="788"/>
      <point x="553" y="737" type="curve" smooth="yes"/>
      <point x="543" y="731"/>
      <point x="537" y="725"/>
      <point x="537" y="715" type="curve" smooth="yes"/>
      <point x="537" y="354" type="line" smooth="yes"/>
      <point x="537" y="315"/>
      <point x="522" y="307"/>
      <point x="479" y="307" type="curve" smooth="yes"/>
      <point x="420" y="307" type="line"/>
      <point x="420" y="770" type="line" smooth="yes"/>
      <point x="420" y="784"/>
      <point x="410" y="791"/>
      <point x="395" y="786" type="curve" smooth="yes"/>
      <point x="305" y="760"/>
      <point x="215" y="723"/>
      <point x="129" y="672" type="curve" smooth="yes"/>
      <point x="119" y="666"/>
      <point x="113" y="659"/>
      <point x="113" y="649" type="curve" smooth="yes"/>
      <point x="113" y="354" type="line" smooth="yes"/>
      <point x="113" y="315"/>
      <point x="98" y="307"/>
      <point x="55" y="307" type="curve" smooth="yes"/>
      <point x="-41" y="307" type="line"/>
    </contour>
  </outline>
</glyph>
<glyph name="tah-ar.fina" format="2">
  <advance width="1662"/>
  <anchor x="578" y="-139" name="bottom"/>
  <anchor x="1042" y="1206" name="top"/>
  <outline>
    <component base="tah-ar"/>
    <contour>
      <point x="1264" y="307" type="line"/>
      <point x="1264" y="0" type="line"/>
      <point x="1702" y="0" type="line"/>
      <point x="1702" y="307" type="line"/>
    </contour>
  </outline>
</glyph>
<glyph name="tah-ar.init" format="2">
  <advance width="1482"/>
  <anchor x="535" y="-142" name="bottom"/>
  <anchor x="939" y="1392" name="top"/>
  <outline>
    <component base="tah-ar" xOffset="-163" identifier="5D2FD868"/>
    <contour>
      <point x="-81" y="307" type="line"/>
      <point x="-81" y="0" type="line"/>
      <point x="199" y="0" type="line"/>
      <point x="199" y="307" type="line"/>
    </contour>
  </outline>
</glyph>
<glyph name="tah-ar.medi.ss01" format="2">
  <advance width="1490"/>
  <anchor x="590" y="-129" name="bottom"/>
  <anchor x="875" y="1372" name="top"/>
  <outline>
    <contour>
      <point x="-83" y="307" type="line"/>
      <point x="-83" y="0" type="line"/>
      <point x="240" y="0" type="line"/>
      <point x="240" y="307" type="line"/>
    </contour>
    <component base="tah-ar.fina.ss01" xOffset="-163"/>
  </outline>
</glyph>
<glyph name="tehMarbuta-ar.fina" format="2">
  <advance width="1038"/>
  <anchor x="337" y="-152" name="bottom"/>
  <anchor x="488" y="1526" name="top"/>
  <outline>
    <contour>
      <point x="516" y="307" type="line"/>
      <point x="516" y="0" type="line"/>
      <point x="1079" y="0" type="line"/>
      <point x="1079" y="307" type="line"/>
    </contour>
    <component base="_roundhead" xOffset="82" identifier="C6A0B0A6"/>
    <component base="_twodots" xOffset="547" yOffset="1214" identifier="542A1368"/>
  </outline>
</glyph>
<glyph name="wawHamzaabove-ar.fina" format="2">
  <advance width="1019"/>
  <anchor x="305" y="-475" name="bottom"/>
  <anchor x="401" y="1526" name="top"/>
  <outline>
    <component base="wawHamzaabove-ar"/>
    <contour>
      <point x="887" y="307" type="line"/>
      <point x="887" y="0" type="line"/>
      <point x="1076" y="0" type="line"/>
      <point x="1076" y="307" type="line"/>
    </contour>
  </outline>
</glyph>
